<?xml version="1.0" encoding="UTF-8"?>
<svg id="Calque_2" data-name="Calque 2" xmlns="http://www.w3.org/2000/svg" viewBox="0 0 35.38 35.38">
  <defs>
    <style>
      .cls-1 {
        fill: #000;
        stroke-width: 0px;
      }
    </style>
  </defs>
  <g id="Calque_1-2" data-name="Calque 1">
    <g>
      <path class="cls-1" d="M26.7,1c4.24,0,7.68,3.45,7.68,7.68v18.02c0,4.24-3.45,7.68-7.68,7.68H8.68c-4.24,0-7.68-3.45-7.68-7.68V8.68C1,4.45,4.45,1,8.68,1h18.02M26.7,0H8.68C3.89,0,0,3.89,0,8.68v18.02c0,4.79,3.89,8.68,8.68,8.68h18.02c4.79,0,8.68-3.89,8.68-8.68V8.68c0-4.79-3.89-8.68-8.68-8.68h0Z"/>
      <path class="cls-1" d="M17.69,10.34c4.05,0,7.35,3.3,7.35,7.35s-3.3,7.35-7.35,7.35-7.35-3.3-7.35-7.35,3.3-7.35,7.35-7.35M17.69,9.34c-4.61,0-8.35,3.74-8.35,8.35s3.74,8.35,8.35,8.35,8.35-3.74,8.35-8.35-3.74-8.35-8.35-8.35h0Z"/>
      <circle class="cls-1" cx="28.15" cy="6.28" r="2.16"/>
    </g>
  </g>
</svg>