<?xml version="1.0" encoding="UTF-8"?>
<svg id="Calque_2" data-name="Calque 2" xmlns="http://www.w3.org/2000/svg" viewBox="0 0 202.91 223.25">
  <defs>
    <style>
      .cls-1 {
        fill: #fff;
        stroke-width: 0px;
      }
    </style>
  </defs>
  <g id="Calque_2-2" data-name="Calque 2">
    <g>
      <g id="Logo">
        <g>
          <path class="cls-1" d="M47.74,115.78c-.08-.06-.15-.11-.23-.17-.05.01-.1.03-.15.04-.3.09-.3.16-.53.23-.3.09-.23-.09-.45-.18.08-7.75.15-15.5.23-23.25-.61-4.39-.3-8.1-.45-11.62-.08-.29-.08-.36,0-.7,0-1.7,0-3.4,0-5.1.08-.23.15-.46.23-.68,0-1.91,0-3.81,0-5.72-.38-.12-.3-2.93-.3-4.63,0-1.08,0-2.16,0-3.25,0-1,.3-1.25,1.06-1.46.48-.14.96-.27,1.44-.4.13-.06.25-.12.38-.18.08-.02.15-.04.23-.06.22-.08,4.19-1.26,4.49-1.32.61-.15,1.3-.24,1.91-.23.2-.05.41-.1.61-.14.15.12.46-.26.69-.31.23-.05.46-.11.69-.16.38-.09.38.07,1-.07.23-.05.69-.23,1-.29.61-.13,2-.35,2.84.03.31.48,1.23.22,1.77.66.31-.06.62.27,1,.51,3.93,2.61,4.87,8.13,4.86,12.99,0,.23-.15.33-.23.42.46,3.02-.39,6.86-1.78,9.57-.62.41-.77,1.52-1.47,2.34-.54.41-1.08,1.05-1.08,1.82,0,.92,2.78,13.03,3.47,16.24.08.06.15.21.23.19.85,3.26,1.24,5.83,1.86,7.28.15.36.31,1.5.31,1.65,0,.39-.39.83-1.24.81-.23-.12-.77.05-1.08.1-.72.12-1.44.24-2.16.37-.69.12-1.23.14-1.85.26-1.31.25-.93.33-2.31.6-.62.12-1.15-.69-1.23-1.45-.23-1.73-.85-4-1.23-5.93-.23-.88-.31-3.26-.69-4.88-.92-3.43-1.38-7.19-2.15-10.73-.08-.06-.23-.26-.38-.22-.13.03-.26.06-.38.09-.31.05-.61.09-.92.14-.13.03-.26.06-.38.09-.15.04-.54.21-.54.52-.08.48-.23.98,0,1.08-.08.02-.23.52,0,.54-.23.6-.08,1.41-.08,1.72v5.18c0,.23.15,1.51.15,1.97,0,0-.15-.04-.15.19.08,2.97.15,5.94.23,8.91.15.2.15.89.08,1.3-.15.96.08,1.37.08,1.99,0,1.01-.15,1.19-1.07,1.42-.74.18-1.48.37-2.21.56-.25.01-.51.03-.76.04-.18.05-.36.09-.53.14-.18.1-.36.2-.53.3-.61.24-1.52.64-2.13.82-.05.01-.1.03-.15.04ZM52.46,106.64c-.05-.14-.1-.28-.15-.42-.05.04-.1.08-.15.12.05.12.1.23.15.35.05-.01.1-.03.15-.04ZM53.15,66.12c-.05-.06-.1-.13-.15-.19,0-.05,0-.1,0-.15,0-.15-.08-.37.15-.5-.2.03-.41.05-.61.08.23.48.23.95.3,1.24.1-.1.2-.21.31-.31v-.15ZM53.15,102.75v.23c.15-.04.31-.08.46-.11v-.23c-.15.04-.31.08-.46.11ZM53.22,90.99v.23c.1-.03.2-.05.31-.08v-.23c-.1.03-.2.05-.31.08ZM53.45,59.01c.13-.03.25-.06.38-.09,0,.05,0,.1,0,.15-.13.03-.25.06-.38.09v-.15ZM53.83,88.52c.1-.15.2-.31.31-.46-.1-.08-.2-.16-.31-.23-.15.12-.31.38-.31.54.1.05.2.1.31.16ZM53.83,92.23c-.15.04-.31.15-.31.38,0,.31.23.18.31.16.08-.25.08-.56,0-.54ZM53.83,96.56c.05-.04.1-.08.15-.11.03.1.05.19.08.29-.05.01-.1.03-.15.04-.03-.07-.05-.14-.08-.21ZM54.06,80.73v-.46c-.05.01-.1.03-.15.04v.46c.05-.01.1-.03.15-.04ZM54.6,61.36c.08-.07.15-.14.23-.21.03.05.05.09.08.14-.1.08-.2.15-.31.23,0-.05,0-.1,0-.15ZM54.75,76.47c.15.27.15.66.23.79,0,.15-.08.25,0,3.56-.23.6,0,.62.31.54.61-.15,1.22-.21,1.38-.25.92-.21,1.99-.92,2.61-1.36.77-.55,2-3.59,2-4.75-.03-1.62-.05-3.24-.08-4.85.38-.54-.69-3.88-.54-3.6-.05-.2-.1-.39-.15-.59-.08-.09-.15-.17-.23-.26,0-1-1.08-1.63-2.22-1.83-.61-.17-1.76.01-2.45.26-.38.17-.76.41-.76.96,0,.31-.08.95-.08,1.64,0,.54,0,.77.15,1.05-.05,2.9-.1,5.8-.15,8.69ZM55.44,60.38c.15-.35-.15-.74-.38-.91-.38.4-.31.77-.15,1.04.18-.04.36-.09.54-.13ZM55.28,84.3c-.13-.1-.25-.2-.38-.3v.46c.13-.06.25-.11.38-.17ZM56.51,62.53c-.33.05-.66.1-.99.16v.77c.15.04.23-.06.99-.08v-.85ZM55.82,61.22c.18.04.36.07.54.11v-.31c0-.31.54-.67.54-.9-.08.02-.15-.12-.46-.05-.2.38-.41.77-.61,1.15ZM58.35,82.05c.08-.17,0-.31-.08-.37-.15.03-.46.41-.46.64.15.12.38.07.54.03v.54c.38-.09.69-.38.69-.38-.23-.26-.54-.27-.69-.23v-.23ZM58.65,59.72c.05-.11.1-.23.15-.34-.15-.04-.38-.15-.69-.08-.15.11-.15.27-.23.44.26,0,.51-.01.77-.02ZM58.35,61.1v-.39c-.08.02-.15.03-.23.05v.39c.08-.02.15-.03.23-.05ZM58.96,84.23c.38.04.77.09,1.15.14,0-.23-.15-.43-.15-.43-.15.03-.23.05-.31.14-.15.03-.31.07-.46.1-.05-.25-.1-.49-.15-.74-.31.22-.54.58-.69.92.2-.05.41-.09.61-.14ZM59.27,62.83c-.03-.48-.05-.97-.08-1.45-.23.2-.61,1.37-.69,1.62.26-.06.51-.11.77-.17ZM59.19,84.8c-.08.17-.15.19-.15.19-.03.03-.05.06-.08.09-.08.02-.15.11-.23.2v1.08c.15-.03.31,0,.38.07.23-.28.38-.55.38-.86,0-.15-.08-.29-.08-.37-.08-.14-.15-.28-.23-.41ZM59.19,59.37c.08.09.15.17.23.26v.08c.15-.03.31-.07.46-.1v-.08c-.03-.1-.05-.2-.08-.29v-.08c-.2.04-.41.09-.61.13v.08ZM59.73,81.9c-.18.04-.36.08-.54.12.15.43.31.71.54.81.15-.34.15-.73,0-.93ZM59.65,87.95c.1-.02.2-.04.31-.07,0-.23-.08-.45-.23-.49-.23.05-.46.41-.46.56.15.04.31.01.38,0ZM60.34,86.1c-.38.08-.61.29-.61.59,0,.23.15.28.38.23.05-.01.1-.02.15-.03.08-.17.08-.33.08-.48v-.31ZM60.27,84.11c-.15.34-.23.67-.08.94.23-.05.46-.25.46-.25,0-.31-.23-.57-.38-.69ZM60.11,61.26c.15.2.54,1.05.69,1.09,0-.08.15-.26.15-.26-.23-.11-.38-.92-.84-.83ZM60.65,87.5c.15-.19.15-.5,0-.7-.31.22-.46.56-.46.79.15-.03.31-.07.46-.1ZM60.65,60.22c.08-.25-.08-.29-.15-.43-.08.17-.23.36-.23.51.13-.03.26-.05.38-.08ZM60.88,93.33c.15-.19.15-.42.15-.42-.15-.12-.54-.04-.69.22.15.2.38.23.54.2ZM60.5,81.89c.2-.04.41-.09.61-.13,0-.23-.15-.51-.15-.51-.15.21-.31.42-.46.64ZM61.34,92.07c-.05-.2-.1-.39-.15-.59,0-.08-.08-.22-.15-.35-.31.37-.46.71-.46,1.02q.15-.03.23.03c.18-.04.36-.07.54-.11ZM61.11,89.88c.31-.06.54-.42.54-.57-.15-.12-.46-.06-.69-.01.05.2.1.39.15.59ZM61.03,87.5c.15.28.15.43.15.82.31.09.46-.1.77-.16v-.46c-.08-.14-.23-.18-.38-.31-.18.04-.36.07-.54.11ZM61.11,85.47v.39c.2-.09.41-.19.61-.28,0-.13,0-.26,0-.39-.2.09-.41.19-.61.28ZM61.57,78.19c-.08.09-.15.19-.23.28-.08.09-.15.19-.15.34,0,.08,0,.15.08.22.31.09.69.17.92-.27,0-.18,0-.36,0-.54-.21-.01-.41-.02-.61-.03ZM61.49,92.74c.08-.14.15-.29.23-.43-.1-.03-.2-.06-.31-.09-.08.14-.15.29-.23.43.1.03.2.06.31.09ZM61.42,77.22v.15c.15-.03.31-.06.46-.09v-.15c-.15.03-.31.06-.46.09ZM62.11,58.45c0-.23-.08-.22-.15-.28-.23.28-.38.54-.46.79.08-.02.23.11.23.11.15-.19.38-.39.38-.62ZM61.96,62.81c.15-.16.31-.32.46-.48-.1-.06-.21-.11-.31-.17,0,.08-.23.12-.31.14.05.17.1.34.15.51ZM62.26,98.69c0-.15,0-.31-.08-.37-.15.11-.23.28-.23.28.1.03.2.06.31.09ZM62.8,92.55c-.23,0-.46-.01-.69-.02-.15.26-.15.42,0,.54.15-.03.46-.25.69-.52ZM62.88,62.32c-.23.28-.69.52-.69.91,0,.23.46.14.69.17.08-.32.08-.79,0-1.08ZM62.96,63.77c-.15-.12-.31-.09-.46-.06-.03.19-.05.37-.08.56.08-.02.23.03.23.03.15-.11.31-.14.31-.14v-.39ZM62.65,77.36c.23-.1.46-.19.69-.29,0-.31-.39-.47-.54-.43-.05.24-.1.48-.15.73ZM63.42,79.68c.05-.14.1-.28.15-.42-.1-.03-.21-.06-.31-.09-.05.14-.1.28-.15.42.1.03.21.06.31.09ZM64.03,74.69c-.23-.5-.38-.62-.85-.61.28.2.56.41.85.61ZM63.34,58.44c-.08.25.15.51.31.48.08-.09.08-.32.23-.43-.18-.02-.36-.03-.54-.05ZM64.57,68.4c.08-.09.23-.43.23-.58-.15.03-.31-.02-.31-.02-.15.26-.46.47-.39.54.15.02.31.04.46.07ZM64.26,67.23c.13-.02.26-.05.38-.07.08-.32-.15-.28-.38-.31v.39ZM64.65,75.42v.31c.23-.04.46-.09.69-.13v-.31c-.23.04-.46.09-.69.13ZM65.19,69.06c.23.03.54.13.62.12-.15-.05-.23-.34-.23-.34-.15.03-.39.23-.39.23ZM65.42,58.82c0,.08,0,.15,0,.23.1-.02.21-.04.31-.06v-.23c-.1.02-.21.04-.31.06ZM65.42,69.79c.03-.06.05-.11.08-.17.08.09.15.18.23.27-.03.03-.05.06-.08.09-.08-.06-.15-.13-.23-.19ZM65.65,62.72c.08-.01.31-.21.39-.3.08-.4-.15-.59-.39-.78v1.08ZM65.65,67.58v.39c.15-.03.39-.38.39-.46-.13.02-.26.05-.39.07ZM66.35,64.37c.23-.35.15-.57.08-.79-.39.3-.54.48-.69.74.21.01.41.03.62.04ZM66.96,64.41c0,.23.31.41.39.47-.08-.53-.31-.41-.39-.47ZM68.43,101.95c0,.08.15.21.23.35.15-.18.15-.33.15-.41-.13.02-.26.04-.39.06ZM69.05,102.85c-.13.02-.26.04-.39.06v.62c.15.13.46.23.62.21-.08-.3-.15-.59-.23-.89ZM69.43,105.42c-.05-.02-.1-.03-.15-.05.05-.11.1-.22.15-.33.05.02.1.03.15.05-.05.11-.1.22-.15.33Z"/>
          <path class="cls-1" d="M75.16,109.82c-1.32.18-1.32-.36-1.16-.92.1-.56.21-1.11.31-1.67.16-1.41.39-2.84.7-3.88-.08-.45.15-.79.23-1.34.23-1.5.47-2.84.54-4.63,0-.23.08-.47.16-.72.08-.63.08-1.4.23-2.12,0-.31.31-1.28.39-1.75.08-.32.23-.96.23-1.34.16-.95.47-2.61.78-3.42.08-.4.23-1.42.39-2.13.03-.21.05-.42.08-.63.08-.86.23-2.27.47-3.07,0-.08,0-.23.08-.32v-.77c.08-.09.08-.24.08-.32.16-.56.23-1.19.31-1.81.08-.47.08-1.17.16-1.79,0-.08.08-.55.16-.79.08-.47.16-.94.23-1.57,0-.93.23-2.5.39-3.44.08-.47.31-.96.47-1.6.08-.55.23-1.57.31-2.43,0-.23.16-.71.23-1.03.16-1.36.31-2.71.47-4.07,0-.39.47-1.75.62-2.61.16-.48.08-.93.16-1.48v-.23c.05-.19.1-.37.16-.56v-.23c.08-.86.08-1.63.31-2.43-.08-.38-.08-.69,0-1.08.23-1.18.62-1.37,1.4-1.44,2.72-.24,5.53-.43,8.26-.47,1.17-.05,1.17.11,1.33,1.18.08.46.16,1.15.47,1.99.16.61.08,1.23.16,1.93.16,1,.23,2.7.31,3.93,0,.31.31.84.39,1.3.1.77.21,1.54.31,2.31.08.54,0,1.55.31,2.62v.85c0,.15.08.31.08.46.08.36.16.72.23,1.08,0,.15.08.31.08.46.23,1.08.39,3.85.62,5.7.08.46.39,1.15.47,1.77.23,2.31.39,4.86.7,7.33,0,.39.23.92.31,1.46.16.77.23,2.39.23,2.62,0,1.39.47,2.47.47,3.94,0,.39.08,1.08.08,1.54,0,.62-.08.85.16,1.54.08.33.16.67.23,1,.23.92.39,2.08.39,3.01.08.77.23,2.63.47,3.32.16,1.08.16,2.39.39,3.55.16.85,0,1.47-1.17,1.48-.62-.01-5.62.27-6.71-.05-.39-.14-.47-.44-.55-.9-.08-.31-.23-.61-.23-.92,0-.77.08-1.86.08-2.4-.08-.07-.08-.23-.16-.38-.13-.87-.26-1.74-.39-2.61-.08-.15-.08-.46-.08-.69v-.15c-.05-.1-.1-.2-.16-.3v-.15c-.1-.82-.21-1.64-.31-2.46-.08-.15-.08-.23-.23-.3-1.61.09-3.22.2-4.83.32-.18-.01-.36-.02-.55-.03-.39.03-.7.06-1.01.39-.16,1.4-.23,3.42-.62,4.77-.23,1.03-.31,2.04-.39,3.05-.08.86-.39,1.74-.54,2.68-.08.16.08,1-.93,1.1-2.18.22-4.35.47-6.52.76ZM85.19,63.92c-.1.14-.21.27-.31.41.23.44.23.91.7.95.08-.24.39-.42.39-.73,0-.23-.23-.45-.39-.66-.13.01-.26.02-.39.03ZM85.73,68.44c-.18-.09-.36-.18-.55-.27,0,.08-.23.25-.23.48,0,.23.23.52.23.6q.08-.08.16-.09c.08-.08.16-.17.23-.25.08,0,.16-.09.16-.09v-.39ZM85.42,59.42c.13-.01.26-.02.39-.03.08-.08.31-.33.47-.35,0-.13,0-.26,0-.39-.21.02-.42.03-.62.05-.23.17-.47.42-.47.5.08.07.16.14.23.21ZM89.94,87.39c0-.23-.31-1.37-.47-2.14-.08-.77.08-1.94,0-2.4-.16-.61-.47-1.59-.47-1.83-.23-3.23-.47-6.46-.7-9.69-.7,2.13-1.09,4.94-1.32,7.82-.08.62-.39,1.34-.47,1.81-.08.39.08.92,0,1.24,0,.08-.08.24-.08.39-.1.29-.21.58-.31.87,0,.15-.08.24-.08.39-.08.78,0,1.7-.08,2.56-.16.32-.23,1.02-.23,1.26,0,.31,0,.54.16.68,2.1-.47,2.88-.21,4.05-.28v-.7ZM85.97,62.16c.05,0,.1,0,.16-.01.08.02.16.04.23.06.16-.24.31-.64.31-.8,0-.15-.16-.37-.23-.52-.16.17-.47.34-.47.5v.77ZM86.82,53.44c-.16.24-.39.57-.55.5.23.14.39.36.55.35v-.85ZM88.77,64.9c-.18-.01-.36-.03-.55-.04-.08.08-.16.16-.23.25.16.3.31.44.55.43.31-.02.23-.09.23-.09v-.54ZM89.01,95.8c.08-.03.16-.06.23-.09.03.05.05.1.08.15-.08.03-.16.06-.23.09-.03-.05-.05-.1-.08-.15ZM89.16,74.53c0,.15.39.36.62-.04-.21.01-.42.02-.62.04ZM89.24,89.68c.1,0,.21-.01.31-.02v.15c-.1,0-.21.01-.31.02v-.15ZM89.86,66.61v-.15c.08-.06.16-.11.23-.17.03.05.05.1.08.15-.1.06-.21.12-.31.17ZM89.94,70.78c.31-.02.62-.04.94-.05,0-.08,0-.31-.16-.38-.23.24-.62.27-.78.43ZM91.11,61.98c-.08,0-.23-.07-.39-.13-.31.25-.55.73-.55.96.08,0,.16.15.62.12.08-.24.31-.33.31-.64v-.31ZM90.25,76.4c.18-.01.36-.02.55-.03v-.23c-.18,0-.36.02-.55.03v.23ZM91.03,90.58c-.08,0-.39.18-.47.26.16.07.39.13.39.13.08-.16.08-.31.08-.39ZM91.03,74.58c-.08.08-.16.16-.23.24.31.14.94.26,1.17.25.31-.01.39-.1.47-.25-.31-.06-.78-.27-1.09-.26-.1,0-.21.01-.31.02ZM90.88,80.15c.13,0,.26-.01.39-.02,0-.31-.16-.3-.39-.37v.39ZM90.96,82.31v.15c.18,0,.36-.02.55-.03v-.15c-.18,0-.36.02-.55.03ZM91.11,95.91c.13,0,.26-.01.39-.02v.15c-.13,0-.26.01-.39.02v-.15ZM91.81,66.89c.13-.11.26-.22.39-.33-.31-.06-.62.03-.86.04,0,.08.23.3.47.29ZM91.74,89.31c-.05,0-.1,0-.16,0v-.23c.05,0,.1,0,.16,0v.23ZM91.97,87.75v-.39c-.08,0-.16,0-.23.01v.39c.08,0,.16,0,.23-.01ZM91.97,95.48v-.39c-.08,0-.16,0-.23.01v.39c.08,0,.16,0,.23-.01ZM91.97,68.74c.05,0,.1,0,.16,0v-.54c-.05,0-.1,0-.16,0v.54ZM92.44,76.68c0,.08-.31.25-.39.02.13,0,.26-.01.39-.02ZM92.05,78.01c.13,0,.26-.01.39-.02v.15c-.13,0-.26.01-.39.02v-.15ZM92.13,86.04s.08,0,.16-.16c.08.15-.08.16-.16.16ZM92.36,85.18c-.05-.02-.1-.05-.16-.07.03-.1.05-.21.08-.31.05,0,.1,0,.16,0-.03.13-.05.26-.08.39ZM92.59,84.25c.31-.17.55-.02.86-.04.23,0,.47-.33.47-.4-.86.03-1.25-.1-1.48.06.05.13.1.25.16.38ZM92.52,95.38c.16.07.23.14.23.3.21,0,.42-.02.62-.03,0-.15.08-.31.08-.31-.31.01-.62.03-.94.04ZM93.06,80.59c-.23.16-.23.4-.08.62.21,0,.42-.02.62-.03,0-.15.08-.31.08-.31-.08-.38-.23-.76-.78-.82-.16.08-.23.4-.23.55.08,0,.31-.09.39-.02ZM93.14,86.15c0-.08.16-.24.16-.39-.16-.07-.31-.06-.39-.06-.16.08-.16.24-.23.32.16.04.31.09.47.13ZM92.67,99.31v.39c.16,0,.31-.01.47-.02v-.39c-.16,0-.31.01-.47.02ZM93.45,91.78c.23-.24.47-.48.47-.71,0-.23-.39-.45-.39-.53,0,.08-.08.16-.16.24-.13.19-.26.37-.39.56-.08.08-.08.16-.16.24.23.07.55.21.62.21ZM92.91,72.1c.05-.03.1-.06.16-.08.05.05.1.1.16.15-.05.03-.1.06-.16.08-.05-.05-.1-.1-.16-.15ZM93.22,82.67v.39c.1.1.21.2.31.3.08-.08.23-.16.23-.16,0-.31-.08-.46-.08-.54-.16,0-.31.01-.47.02ZM93.45,88.85v-.39c-.08,0-.16,0-.23,0v.39c.08,0,.16,0,.23,0ZM93.22,100.84c.03.2.05.41.08.61.21-.06.42-.12.62-.18-.23-.15-.47-.29-.7-.44ZM93.53,75.16v.39c.13,0,.26-.01.39-.01,0-.08.08-.23.08-.23-.16-.05-.31-.09-.47-.14ZM94.31,82.48v-.46c-.08,0-.23-.15-.39-.14-.16.08-.31.4-.31.55.05,0,.1,0,.16,0,.13.02.26.04.39.06.05,0,.1,0,.16,0ZM94.08,93.61c-.13,0-.26,0-.39.01,0,.23.16.53.39.6v-.62ZM94.31,86.96c0,.08.08.07.08.15.16.3.23.84.23,1.07.21,0,.42-.01.62-.02-.08-.23-.23-.77-.23-1.07-.31-.3-.7-.52-1.09-.43,0,.08.08.07.08.15.1.05.21.1.31.14ZM93.92,100.34c.13,0,.26,0,.39-.01,0-.31-.16-.3-.39-.37v.39ZM94.47,84.25c.23-.32.23-.7.23-.94-.08,0-.23-.07-.39-.06.05.33.1.67.16,1ZM94.7,80.53c.05-.1.1-.21.16-.31-.08-.07-.31-.07-.39-.06,0,.08.16.23.23.38ZM94.54,69.48v.15c.16,0,.31-.01.47-.02v-.15c-.16,0-.31.01-.47.02ZM94.54,93.37c.1,0,.21,0,.31-.01v.15c-.1,0-.21,0-.31.01v-.15ZM94.86,71.1c.23,0,.39-.09.39-.09,0-.23-.23-.38-.39-.37-.08.23,0,.39,0,.46ZM94.86,75.97c.13.05.26.09.39.14v.15c-.13-.05-.26-.1-.39-.14v-.15ZM96.03,73.15v-.46c-.08-.15-.23-.3-.31-.38-.23.08-.55.4-.55.63,0,.23.16.23.16.23.23,0,.47-.01.7-.02ZM96.34,84.42c.31,0,.39-.09.62-.17-.23-.46-.62-.22-1.09-.9.47-.24.55-.63.94-.95-.08-.15-.08-.31-.23-.38-.21,0-.42.01-.62.02-.31.32-.78.64-.78.87,0,.23.39,1.07.62,1.45.16.07.23.07.55.06ZM95.72,78.64c-.08,0-.31,0-.39-.14v.54c.08,0,.23-.08.39-.01v-.39ZM95.4,80.35c.08,0,.39-.17.39-.24-.08-.15-.23-.15-.23-.15-.16,0-.16.31-.16.39ZM95.4,81.28c.31.22.7.06,1.01-.1-.23-.38-.78-.37-1.01-.28v.39ZM95.64,86.99c.08-.08.23-.08.23-.08,0-.15-.16-.3-.23-.38,0,.08-.23.16-.23.16.08.1.16.2.23.3ZM95.87,79.34c0,.08-.08.31-.31.32.1-.11.21-.21.31-.32ZM96.89,94.92c.23,0,.55-.17.78-.25-.08-.15-.31-.15-.47-.38-.08-.23-.08-.54-.08-.77-.08.39-.47.4-.86.56,0,.15.23.84.62.84ZM98.52,100.61c-.78.01.47-1.09-.7-1.07-.23,0-.31.16-.47.16.23.07.47.22.47.46-.08.08-.16.16-.23.24.47.69.31,1.15.94,1.14.23,0,.31-.62.39-.93-.13,0-.26,0-.39,0ZM97.59,88.11c.13.02.26.05.39.07v.15c-.13-.02-.26-.05-.39-.07v-.15ZM98.6,99.3c.08-.1.16-.21.23-.31-.31-.15-.7-.14-1.01.02.08.08.16.23.16.31.21,0,.42,0,.62,0ZM98.21,97.99c-.23,0-.08.39.08.62,0-.31-.08-.54-.08-.62Z"/>
          <path class="cls-1" d="M119.27,93.52c0-.31-.08-1.32-.08-1.94,0-.62,0-1.47.08-2.23,0-.23-.08-.47,0-.7,0-.31.08-.69.08-.92,0-.93-.39-.81-.7-.84-.23-.02-1.09-.02-1.4-.04-1.64-.13-1.09-3.79-1.09-3.95-.08-.31-.08-.86-.08-1.17,0-.23-.08-.86.08-1.77.08-.23.39-.59.62-.65,3.71.29,7.42.69,11.11,1.19.54.23.54.85.54,1.31-.05.59-.1,1.17-.16,1.76v12.91c0,.31.08.32.08.55.23.88,0,1.93,0,2.94,0,.77-.08,1.53-.08,2.38,0,.08.16.33.16.56,0,.39.08,1.25.08,1.48v4.87c0,.77-.23.89-1.09.78-.85-.11-1.78-.31-2.02-.33-1.55-.19-1.79-.29-2.17-2.34-.08-.11-.16-.22-.23-.33-.31.04-.54.56-.85.76-.62.32-1.63,1.22-2.49,1.53-.62.25-2.57.39-2.88.37-1.79-.14-3.58-.41-5.3-1.04-.39-.18-2.03-.95-2.73-1.82-.62-.64-1.33-1.44-2.03-2.46-.23-.47-.47-1.48-.94-2.26-.23-.86-.62-1.95-.86-3.5,0-.85-.08-.54-.08-1.24,0-.23.08-.62,0-.7-.08-.16-.08-.46-.08-.7,0-.39.08-.93.16-1.31.08-.23-.08-.62,0-.93.08-.54,0-1.24,0-1.55,0-.7.08-1.23.08-2.16,0-.15.08-.93-.08-1.39-.08-.16.08-.54,0-.77-.08-1.24.31-2.39-.23-3.87.03-6.21.05-12.42.08-18.62.08-.46,0-1.24.08-1.85.08-.93.31-2,.47-3.01,0-.31.08-.69.16-1.16.13-.28.26-.56.39-.84.16-.46.55-.91.62-1.45.7-2.45,2.26-3.57,4.29-4.79.31-.22.86-.73,1.25-.86.31-.14.7-.12,1.01-.17.16,0,.55-.28.86-.26.86-.03,2.49.02,2.73.04.23.02,2.03.16,3.04.41.47.04,1.09.49,1.48.68,1.87.72,5.44,3.32,5.98,5.18.08.55.47.91.62,1.32,0,.08.23.42.39.67.78,1.96.93,4.07.93,6,0,.23-.15,2.14-.23,3.45v1.93c0,.62.08,1.79-1.16,1.62-2.33-.31-4.66-.58-6.99-.81-1.01-.1-1.09-.88-1.01-1.49.08-.61-.08-1.32.16-1.92.03-1.93.05-3.86.08-5.79,0-2.47-.54-3.46-3.35-3.69-1.25-.1-2.1.78-2.34,2.23-.08.46-.16,2.62-.08,3.78,0,1.11,0,2.22,0,3.32,0,.7-.16,1.84-.16,2.08v.23c.05.13.1.26.16.4,0,.08,0,.15,0,.23.08,1.09-.23,2.61-.16,4.01,0,.31.31,1.33.31,1.95,0,3.09-.08,9.35-.08,9.58v3.01c0,.31-.23,1.61-.23,1.84v7.27c0,.31.08.31.16.4,0,.85.78,2.6,1.87,2.91.23.09.93.23,1.17.25.86.07,2.02-.52,2.1-1.44.23-1.22,0-3.79,0-4.1v-3.01ZM107.81,72.26v-.54c-.31-.01-.62.29-.62.52.21,0,.42.01.62.02ZM107.5,81.83c-.08.15-.08.31,0,.46.31-.14.08-.31,0-.46ZM107.81,76.35c.16.16.31.32.47.48.31-.14.7-.44.7-.67,0-.15-.16-.32-.39-.4-.23-.09-.39-.09-.55-.25-.08.28-.16.56-.23.84ZM109.37,91.4c.1-.1.21-.2.31-.3-.16-.24-.47-.48-.62-.49-.16.15-.23.45-.23.69.05,0,.1,0,.16,0,.08.03.16.06.23.09.05,0,.1,0,.16,0ZM109.22,78.41v.54c.23,0,.47.02.7.03,0-.08,0-.15-.08-.16v-.15c0-.08-.08-.08-.08-.24-.18,0-.36-.02-.55-.02ZM109.37,89.16v.54c.23,0,.47.02.7.03,0-.08,0-.15-.08-.16v-.15c0-.08-.08-.08-.08-.23-.18,0-.36-.02-.55-.02ZM109.92,71.8v-.46c-.1,0-.21,0-.31-.01v.46c.1,0,.21,0,.31.01ZM110.15,72.81c-.18,0-.36-.02-.55-.02v.39c0,.39.39.48.55.49.16-.07.31-.37.31-.53-.1-.11-.21-.22-.31-.32ZM109.92,68.86c.16,0,.39-.06.55-.21-.16-.32-.47-.49-.7-.5,0,0,0,.54.16.7ZM110.54,81.48c.1-.1.21-.2.31-.29-.16-.24-.47-.49-.62-.49-.16.15-.23.45-.23.68.05,0,.1,0,.16,0,.08.03.16.06.23.09.05,0,.1,0,.16,0ZM110.15,77.37v.39c.16,0,.31.01.47.02v-.39c-.16,0-.31-.01-.47-.02ZM110.31,88.12v.39c.16,0,.31.01.47.02v-.39c-.16,0-.31-.01-.47-.02ZM110.54,92.54c.26-.04.52-.08.78-.12-.16-.32-.47-.56-.7-.58-.08.15-.08.31-.08.38,0,.1,0,.21,0,.31ZM111.71,82.7c.26-.04.52-.08.78-.11-.16-.32-.47-.57-.7-.58-.08.15-.08.31-.08.38,0,.1,0,.21,0,.31ZM115.07,57.02c-.05-.03-.1-.06-.16-.09.03-.05.05-.1.08-.15.05,0,.1,0,.16.01-.03.08-.05.15-.08.23ZM115.69,57.52c.03.13.05.26.08.39.16.01.47.11.62.05,0-.23-.08-.47-.16-.55-.18.04-.36.08-.55.11ZM119.66,53.6c.16-.19.31-.38.47-.57-.26-.05-.52-.1-.78-.15,0,.39.08.63.08.7.08,0,.16.01.23.02ZM120.36,54.98c.29.03.57.06.86.08.16.02.16-.14.23-.21-.16-.09-.31-.26-.31-.42,0-.23.08-.22.16-.29-.54.18-.78-.08-1.09.59.05.08.1.16.16.25ZM120.98,57.36v-.31c-.08-.32-.23-.41-.47-.43-.23-.02-.31.28-.31.36.23.33.54.36.78.39ZM122.54,63.01c0-.23-.39-.35-.86-.4-.23-.02-.93-.17-1.17.04.31.18.93.71,1.09.73.16.02.93.02.93-.37ZM120.67,60.89c.23.1.23.33.16.4-.05-.03-.1-.06-.16-.09v-.31ZM122.54,65.56v-.39c-.08-.16-.31-.27-.47-.44-.16.45-.54.72-1.01.67,0,0,.23.64.54.67.23.02.39-.35.47-.41.16-.04.31-.07.47-.11ZM121.29,60.41c.13.01.26.03.39.04.08-.07.16-.14.16-.37,0-.23-.16-.33-.23-.33-.23.13-.47.11-.47.42,0,.23,0,.15.16.25ZM122.23,64.44v-.39c0-.23-.16-.4-.31-.42-.16.06-.23.13-.31.12v.39c.16.09.39.35.47.51.05-.07.1-.14.16-.22ZM122.46,68.72c.08-.07.23-.13.31-.12,0-.15-.16-.4-.31-.5-.16.06-.39.27-.39.35.13.09.26.18.39.27ZM122.62,82.26c-.08.15-.39.11-.39.11,0-.08-.08-.09,0-.15.13.01.26.03.39.04ZM123.78,61.29c.08-.02.16-.03.23-.05.05,0,.1.01.16.02-.08-.4-.54-.45-.54-.84-.31-.19-.16-.56-.31-.58-.54-.06-.54.17-.54.33,0,.31.31,1.04,1.01,1.12ZM122.85,58.95v.39c0,.23.16.25.23.26.08-.07.08-.53.08-.61-.1-.01-.21-.02-.31-.03ZM123.39,92.47c.13.04.26.08.39.12.08-.07.16-.21.16-.29-.16-.02-.39-.04-.47-.13-.03.1-.05.2-.08.3ZM123.63,62.67c-.08.07-.16.14-.16.29,0,.23.23.26.23.18.08-.22.08-.38-.08-.47ZM123.55,66.52c.16.02.31-.2.31-.27-.08-.09-.23-.18-.31-.19-.08.15-.08.38,0,.46ZM124.25,64.44c-.18.06-.36.11-.54.17.18.15.36.3.54.45.08-.07.16-.29.16-.37-.05-.08-.1-.17-.16-.25ZM124.17,56.55c.1.01.21.02.31.04.08-.15.23-.28.23-.51,0-.15-.23-.41-.39-.51-.23.2-.54.25-.54.48,0,.23.23.49.39.51ZM123.78,89.5c.21.05.41.1.62.15v-.23c-.1-.17-.21-.33-.31-.5.16-.29.23-.59.23-.9-.16,0-.31.02-.47.02.08.55-.08.38-.08.84,0,.21,0,.41,0,.62ZM126.19,83.07c-.08-.09-.23-.18-.47-.21-.23-.03-.47.02-.7.61.15.17.31.27.47.29.23.03.39-.03.7-.14v-.54ZM126.11,87.46c0-.15-.23-.42,0-1.31-.1-.01-.21-.03-.31-.04-.16.06-.31.35-.39.42.08.47.16.79.16.95.18,0,.36,0,.54,0ZM125.41,95.1c0,.33,0,.67,0,1,.08.16.23.26.31.27.16.02.39-.11.47-.25,0-.15-.08-.4-.08-.78-.23-.08-.47-.16-.7-.24ZM125.88,84.81v-.46c-.05,0-.1-.01-.16-.02v.46c.05,0,.1.01.16.02ZM126.65,92.25c.16-.03.31-.06.47-.09v-.62c-.16-.23-.31-.45-.47-.68v.31c-.03.13-.05.25-.08.38.03.24.05.47.08.71Z"/>
          <path class="cls-1" d="M155.38,107.88c1.52.43.91,1.73.91,2.5,0,.23.08,1.1.08,1.41,0,.93.23,1.46.23,1.84,0,1.93,0,2.32-1.06,2.01-2.86-.84-5.72-1.61-8.61-2.32-.23-.05-.46-.11-.69-.16-.33-.1-.66-.21-1-.31-.23-.05-.46-.1-.69-.16-2.91-.67-7.69-1.34-7.92-1.37-1.31-.24-1.23-1.45-1.23-1.84,0-.54.23-2.12.23-3.98,0-.23-.08-1.17-.15-1.5-.08-.63.08-1.92.08-2.15,0-2.4-.23-3.67-.15-9.53,0-1.62-.08-3.72-.08-5.58,0-.39-.08-1.17-.08-1.79,0-.08-.08,2.07,0-19.24,0-.31,0-.62,0-.93,0-1,0-2.16-.31-3.3v-5.49c0-1.31.39-1.33,1.54-1.12,4.55.77,9.08,1.7,13.58,2.79.23.06,1.07.43,1.37.51.1.03.2.05.3.08.25.02.51.03.76.05.15.04.3.08.46.12.13.06.25.12.38.18.13.03.25.07.38.1.15.02.3.03.46.05.76.21.91.49.91,1.34-.03,2.03-.05,4.06-.08,6.08,0,.77-.68.66-1.44.22-.53-.15-1.06-.29-1.6-.43-.3-.08-.61-.08-.84-.14-.05-.01-.1-.03-.15-.04-.15-.07-.3-.13-.46-.19-.05-.01-.1-.03-.15-.04-.3-.08-.53-.06-.76-.12-.46-.12-2.82-1.01-4.36-1.12-.15.04-.61-.22-.77-.25-.31-.07-.54-.04-.61,2.11,0,.46.08,1.18.08,1.41v3.48c0,.23.15,2.82,0,3.48.15,3.59,0,3.32,0,3.71,0,.46.46.49.69.54.46.1,1.3.14,1.53.19,1.23.2,3.52.77,3.74.83.15.04.84.14,1.37.43.38.18.53.53.53.91,0,1,.23,2.38.23,2.61v5.1c0,.62-.23.4-.69.28-.23-.14-.53-.22-.69-.26-.23-.06-.91-.16-1.22-.23-.05-.01-.1-.03-.15-.04-.13-.06-.25-.12-.38-.17-.05-.01-.1-.03-.15-.04-.3-.08-2.9-.7-4.28-1.16-.15.12-.23.03-.31.16-.08,1.92,0,5.8,0,6.11v8.42c0,.23.08.94-.08,1.37,0,.08-.08.22-.08.45,0,.62-.08,1.37.69,1.54,3.58.75,7.14,1.6,10.67,2.56ZM137.56,108.11c.1.02.21.04.31.06v.15c-.1-.02-.21-.04-.31-.06v-.15ZM138.33,102.69c-.08-.01-.23.03-.39.16.03.13.05.27.08.4.39.07.46-.14.54-.28-.08-.09-.15-.18-.23-.28ZM138.87,98.93c0-.15.15-.28.15-.36-.15-.11-.31-.21-.38-.15-.23.03-.23.19-.23.26.15.08.31.16.46.24ZM138.87,79.6v-.15c.1.02.21.04.31.06v.15c-.1-.02-.21-.04-.31-.06ZM139.1,89.62c.23.04.39-.23.54-.28-.15-.11-.38-.31-.54-.34-.08.06-.23.19-.23.34.08.09.15.18.23.28ZM139.1,65.43c.18.11.36.22.54.34,0-.46.15-.97.15-1.13v-.15c-.26-.08-.51-.15-.77-.23,0,.23.08.48.15.73.15.03.23.05.38.31-.31.09-.31.02-.46-.01v.15ZM139.41,104.21c-.15-.03-.39.23-.39.31.08.09.31.21.39.23,0-.15.08-.37,0-.54ZM139.64,76.43c-.18-.04-.36-.07-.54-.11v.39c.15.11.39.15.54.11v-.39ZM139.25,108.66v.62c.15-.18.31-.35.46-.53-.15-.03-.31-.06-.46-.09ZM140.18,66.49c-.18-.11-.36-.23-.54-.34-.08.22-.15.43-.15.59,0,.15.38.62.54.8,0,0,.08-.14.15-.12,0-.15-.23-.36-.38-.54.08-.06.23-.19.38-.16,0-.08,0-.15,0-.23ZM139.87,93.09c-.08-.02-.38.16-.38.31.15.11.46.17.54.11-.05-.14-.1-.28-.15-.42ZM139.95,68.38c.08.02.15.03.23.05,0-.21,0-.41,0-.62-.08-.02-.23-.12-.54-.18-.03.02-.05.04-.08.06v.39c.13.1.26.21.39.31ZM139.56,73.94v-.39c.05.01.1.02.15.03,0,.13,0,.26,0,.39-.05-.01-.1-.02-.15-.03ZM139.56,74.95v-.31c.05.01.1.02.15.03,0,.1,0,.21,0,.31-.05-.01-.1-.02-.15-.03ZM139.95,101.45c-.15-.03-.31.02-.39,0v.46c.08.01.39.15.46.09-.03-.19-.05-.37-.08-.56ZM140.02,62.13c-.08.76-.23.96-.23,1.73.08.02.23.12.31.22.05-.04.1-.08.15-.12.08-.06-.15-.19-.31-.37.15-.28.62-.49.62-.73,0-.15-.15-.42-.23-.66-.1-.02-.21-.04-.31-.06ZM140.1,65.47c-.1-.02-.21-.04-.31-.06,0,.08.23.28.31.45v-.39ZM139.87,103.37c.13.05.26.1.38.15-.03.05-.05.09-.08.14-.1-.05-.21-.09-.31-.14,0-.05,0-.1,0-.15ZM140.25,90.93c.08.09.31.22.38.08,0-.08-.15-.19-.23-.28-.15.05-.15.2-.15.2ZM140.94,95.7c.05-.14.1-.29.15-.43-.15-.19-.15-.34-.15-.34-.13-.03-.26-.05-.38-.08-.15.2-.31.48-.31.56.23.1.46.2.69.29ZM140.33,65.44c.15,0,.31.01.46.02-.05-.06-.1-.12-.15-.19.08-.14.23-.19.38-.15,0-.44,0-.88,0-1.31-.08.22-.15.05-.15.36-.08.14-.38.15-.54.28v1ZM140.33,66.37c.26.08.51.15.77.23,0-.31-.08-.4-.31-.76-.15,0-.31-.01-.46-.02v.54ZM140.64,97.65c0,.08-.08.22-.15.28.28.11.56.22.85.33.08-.06.15-.28.15-.35-.28-.08-.56-.17-.85-.25ZM141.71,93.31c-.23-.28-.31-.45-.61-.51-.23-.05-.31.17-.38.31-.15.36-.15.9-.15,1.13.23.28.46.56.69.6.31.06.31-.09.46-.14v-1.39ZM140.79,99.31c.13.03.26.05.38.08-.15-.34.08-.76-.08-.87-.08.14-.31.17-.31.4v.39ZM141.87,88.86c-.08-.09-.31-.3-.38-.47-.13-.03-.26-.05-.38-.08-.08.22-.23.49-.23.57.31-.02.69.14,1-.03ZM140.94,63.01c.08.02.23.12.31.22.08-.22,0-.62.08-.91.08-.14.31-.09.31-.32,0-.23-.15-.34-.15-.34-.46.14,0,.85-.54,1.05v.31ZM141.1,97.36c.08.02.38-.08.46-.14-.15-.19-.46-.33-.61-.36.05.16.1.33.15.49ZM141.71,91.92c.23,0,.46,0,.69,0-.08-.48.15-1.05.38-1.31-.15-.03-.31-.22-.61-.28-.23-.05-.69.24-1.08.32.31.22.61.36.69.61-.08.22-.15.43-.08.68ZM141.25,61.07c.15-.12.23-.26.23-.42,0-.23,0-.15-.23-.43v.85ZM143.86,92.92c-.13-.03-.26-.06-.38-.08-.23.03-.15.35-.38.38,0-.31,0-.54-.23-.75-.15-.03-.31-.07-.46-.1.08.25.31.45.38.62-.31.17-.69.32-.92.58.23.13.61.36.84.41.23.05.69-.16,1.15-.21v-.85ZM142.25,96.59c.31-.17.77-.07,1.07-.08,0-.15-.23-.36-.31-.53-.23.1-.46.06-.69,0-.31-.06-.31.09-.46.14.13.16.26.31.38.47ZM141.94,101.01c0,.13,0,.26,0,.39.15.03.31.06.46.1v-.39c-.15-.03-.31-.06-.46-.1ZM142.71,74.43s.05.01.08.02c.08-.06.08-.37,0-.54-.08-.02-.31.24-.31.32.08.07.15.14.23.2ZM142.63,75.96c.13.05.26.11.38.16-.03.05-.05.09-.08.14-.1-.05-.2-.1-.31-.14v-.15ZM142.94,81.75c-.15.04-.23.18-.23.34,0,.31.31.61.61.75.08-.06.31-.09.31-.09,0-.23,0-.46,0-.7-.15-.11-.46-.33-.61-.37-.03.02-.05.04-.08.06ZM142.71,99.17v.39c.31-.01.38-.15.38-.3-.13-.03-.26-.06-.38-.08ZM142.79,95.32c.15.11.31.22.46.25,0-.23-.15-.5-.31-.61-.05.12-.1.24-.15.35ZM143.17,94.32c-.05.12-.1.24-.15.35.15.03.31.07.46.1.15-.04.15-.28.15-.35-.15-.03-.31-.07-.46-.1ZM143.79,80.7v-.54c-.13-.03-.26-.06-.38-.08v.54c.13.03.26.06.38.08ZM145.01,85.99c.05.01.1.02.15.03v-.54c-.15-.03-.38-.09-.54-.28-.08.03-.15.07-.23.1-.08-.02-.15.04-.23.1.1.15.2.3.31.45.15.11.31.15.38.16.05-.01.1-.03.15-.04ZM144.25,82.73c.05-.01.1-.03.15-.04v.08s.05.06.08.09c-.08-.04-.15-.09-.23-.13ZM144.55,82.87s.05-.04.08-.06v.08s-.05-.01-.08-.02ZM145.32,85.06c.38-.14.38-.38,0-.7v.7ZM146.93,59.08c-.31.08-.54.26-.54.57.15.11.31.07.38.09q.23-.02.38.01c-.08-.22-.15-.45-.23-.67ZM146.54,107.13v.23c.15.04.31.07.46.11v-.23c-.15-.04-.31-.07-.46-.11ZM146.93,111.94v-.08c.08,0,.15-.02.23-.02,0-.15-.31-.38-.38-.4.05.17.1.33.15.5ZM147.23,62.63c-.08.03-.15.07-.23.1.08-.03.15-.07.23-.1ZM147.61,59.16c.28.07.56.14.84.2.15.04.23.06.23-.02.08-.06.15-.12.23-.18-.31-.23-.38-.33-.38-.48v-.15c.13-.12.25-.25.38-.37-.46.12-.61.08-.69.14-.05-.01-.1-.02-.15-.04-.38-.01-.53.26-.69.61.08.1.15.19.23.29ZM148.38,61.36q0-.08.08-.14c-.23-.29-.38-.48-.61-.54-.31-.07-.46.2-.46.43.15.19.31.31.46.42.05.04.1.08.15.11q.08.02.15.11c.15-.12.15-.19.15-.27.03-.05.05-.09.08-.14ZM147.92,87.21c-.05.12-.1.23-.15.35v.15c.2.05.41.1.61.15.15-.12.08-.45.08-.68-.18-.04-.36-.09-.53-.13v.15ZM147.92,84.82c.13.16.25.32.38.48.23-.1.23-.48.08-.68-.15-.04-.15.04-.23.02-.08.06-.15.12-.23.18ZM148.61,86.76s0-.08-.08-.1c.05.01.1.03.15.04-.03.02-.05.04-.08.06ZM149.29,62.12s-.05.04-.08.06c-.08.06-.15.19-.15.35,0,.15,0,.23.08.33.18.04.36.09.53.13.15-.04.23-.17.23-.41,0-.23-.23-.44-.38-.48q-.08-.02-.15.04s-.05-.01-.08-.02ZM149.52,112.19c0-.13,0-.26,0-.39-.05-.01-.1-.03-.15-.04-.03.12-.05.24-.08.37.08.02.15.04.23.06ZM149.6,84c.15.06.31.13.46.19-.05.01-.1.03-.15.04,0-.03,0-.05,0-.08-.13-.06-.25-.12-.38-.17.03-.02.05-.04.08-.06v.08ZM149.9,61.35c.2.05.41.1.61.16,0-.15-.15-.43-.38-.72-.08.19-.15.37-.23.56ZM150.21,85.62c.05-.19.1-.39.15-.58-.1-.03-.2-.05-.3-.08-.05.14-.1.28-.15.42.1.08.2.15.3.23ZM150.51,109.04c.1-.03.2-.05.3-.08,0-.08-.15-.19-.23-.37-.03.15-.05.3-.08.44ZM151.12,62.67c.23.06.46.27.76.2,0-.31-.15-.66-.3-.78-.15.04-.38-.02-.61.07.05.17.1.34.15.5ZM151.58,60.16s-.05-.01-.08-.02v-.23c.08.02.15.04.23.06-.03.1-.05.19-.08.29-.03-.03-.05-.06-.08-.1ZM152.19,112.26c0,.23.23.6.38.64.08-.13.23-.32.23-.48-.2-.05-.41-.11-.61-.16ZM153.33,61.86c-.3.07-.61.22-.61.45.3.03.61.06.91.09,0-.15-.08-.25-.15-.35-.05-.07-.1-.13-.15-.2ZM153.63,108.94c-.05-.01-.1-.03-.15-.04,0,.1,0,.21,0,.31.05.01.1.03.15.04,0-.1,0-.21,0-.31Z"/>
        </g>
        <g>
          <path class="cls-1" d="M81.83,157.81c-.13-.73,0-.79,0-1.91,0-.2-.26-.46-.13-.86,0-.07-.07-.46.13-.66-.26-.59-.46-1.72-.46-1.98,0-1.19.26-1.52.2-2.51-.26-.46-.07-.73-.13-1.19v-2.24c0-.2-.07-.66-.13-.99,0-.2-.07-.53-.07-.79,0-.4.26-.99.13-1.72-.07-.73.07-1.45.07-2.18.07-.79,0-1.65-.13-2.51.13-.73.13-1.91.07-2.9l.13-.2c.07,0,.07-.07.07-.07-.26-1.06-.13-.33-.13-4.22,0,0,.07,0,.13-.07-.13-1.45-.13-2.77,0-4.09.07-.07.13-.66-.07-.66.07-.13.2-.4.13-.53-.13-.26-.2-.79-.2-.99v-5.08c0-.86,2.18-.86,2.77-.86q.07,0,.13.07l.26.2q.07.07.13.07c.2,0,.33-.2.4-.26.07.07.13.26.33.26.26,0,.59-.33.79-.33h.26l.86.13h.79c.66,0,1.91-.13,2.05-.13h.13l.2.13h4.29c.2,0,1.39.26,1.65.26h.13l.4-.13h.26l.4.13h.33l.4-.07c.26,0,.73.07.73.46v5.48c0,.86-.53.86-.86.86-.59,0-1.19,0-1.65.07-.33,0-.99-.13-1.45-.13h-2.71c-.4,0-1.06.26-1.25.26s-.99-.2-1.12-.2c-.2,0-.46.07-.73.33l.26,9.9c0,.13.07,1.32.07,1.91.2.2.4.33.59.33s.13-.13.4-.13h.13l.2.13h.26l.2-.2h.13c.66-.13,1.65-.13,1.85-.13.13,0,1.19.13,2.18.2.66.13,1.12-.07,1.12.73,0,.59-.07,1.52.13,1.78v4.62c0,.79-.53.59-1.39.73h-.59c-.13,0-.33-.13-.53-.13-1.25-.13-3.7-.13-3.96-.13s-.46.13-.46.4l.07,3.56-.13.86.2,1.52.07,3.23-.07,3.04.26.59-.07,1.19.26,3.04v2.77c0,1.78-.99.66-2.18,1.06-.2.07-.66-.26-.79-.07-.13,0-.66.13-.86.13-.26,0-1.45-.13-1.65-.13h-.2l-.66.07h-.2c-.59,0-.79.33-.79,0-1.19.2-1.39-.2-1.45-2.18.53-.33-.2-.73.07-1.39,0-.33-.07-.66-.07-1.06,0-.07.26-.2.26-.33,0-.86-.33-1.58-.2-3.83v-.33ZM83.21,133.79v-.46c-.2,0-.46.26-.46.46h.46ZM83.02,141.78c.07.13.2.26,0,.4-.07-.13-.07-.26,0-.4ZM83.08,142.5c-.13.13-.07.26.07.4.13-.13,0-.26-.07-.4ZM83.21,137.22l.4.4c.26-.13.59-.4.59-.59,0-.13-.13-.26-.33-.33-.2-.07-.33-.07-.46-.2l-.2.73ZM83.94,151.54l.26-.26c-.13-.2-.4-.4-.53-.4-.13.13-.2.4-.2.59h.13l.2.07h.13ZM83.87,149.5c.13.13.4.2.66.2.2-.07.4-.07.59-.07-.13-.33-.4-.59-.66-.73l-.59.59ZM84.27,151.08h.66c0-.2-.26-.53-.46-.66l-.2.66ZM84.4,138.87v.46h.59c0-.07,0-.13-.07-.13v-.13c0-.07-.07-.07-.07-.2h-.46ZM84.53,147.85v.46h.59c0-.07,0-.13-.07-.13v-.13c0-.07-.07-.07-.07-.2h-.46ZM85,133.33v-.4h-.26v.4h.26ZM85.19,134.19h-.46v.33c0,.33.33.4.46.4.13-.07.26-.33.26-.46l-.26-.26ZM85,130.89c.13,0,.33-.07.46-.2-.13-.26-.4-.4-.59-.4,0,0,0,.46.13.59ZM85.52,141.45l.26-.26c-.13-.2-.4-.4-.53-.4-.13.13-.2.4-.2.59h.13l.2.07h.13ZM85.19,138.01v.33h.4v-.33h-.4ZM86.12,145.34c0-.07.07-.13.07-.13q0-.07.2-.26l-.92-.13-.2.2v.4c.13.13.4.26.53.26l.33-.33ZM85.33,146.99v.33h.4v-.33h-.4ZM85.52,150.68l.66-.13c-.13-.26-.4-.46-.59-.46-.07.13-.07.26-.07.33v.26ZM85.92,132.34c.33,0,.53-.26.53-.46-.13-.13-.46-.13-.73-.13l.2.59ZM85.85,138.28h.66c0-.33-.13-.59-.53-.92l-.13.92ZM86.38,127.59c-.13,0-.2,0-.26.07-.07.07-.07.13-.13.2.13.13.33.2.33.2.13-.13.07-.33.07-.46ZM86.51,142.37l.66-.13c-.13-.26-.4-.46-.59-.46-.07.13-.07.26-.07.33v.26ZM87.31,144.41v.66l.59-.2v-.26l-.07-.07v-.13h-.53ZM88.89,157.09c-.2-.13-.26-.26-.26-.33-.07-.13-.07-.2-.2-.33-.73,0-.92.07-1.12.07.07.79.59.79.86.79.2,0,.4,0,.73-.2ZM88.69,124.35c.2-.2.13-.59,0-.59-.07,0-.07-.26-.07-.26l-.33.2c-.07.07.13.2-.2.2.26.26.33.26.33.26.07,0,.13.07.26.2ZM88.49,165.2v.33c.2.07.4.13.46.2-.13.07-.07.26,0,.4.2,0,.33-.26.33-.33-.33-.2-.13-.33-.4-.59h-.4ZM89.09,123.76v.59h.46c.13-.13.13-.26.13-.46l-.59-.13Z"/>
          <path class="cls-1" d="M123.08,160.32c1.32,0,.79,1.25.79,1.91,0,.2.07.92.07,1.19,0,.79.2,1.19.2,1.52,0,1.65,0,1.98-.92,1.98l-7.46-.07h-.59l-.86-.07h-.59c-2.51,0-6.6.2-6.8.2-1.12,0-1.06-1.06-1.06-1.39,0-.46.2-1.85.2-3.43,0-.2-.07-.99-.13-1.25-.07-.53.07-1.65.07-1.85,0-2.05-.2-3.1-.13-8.12,0-1.39-.07-3.17-.07-4.75,0-.33-.07-.99-.07-1.52,0-.07-.07,1.78,0-16.43v-.79c0-.86,0-1.85-.26-2.77v-4.69c0-1.12.33-1.19,1.32-1.19l11.68-.13c.2,0,.92.13,1.19.13h.26l.66-.13h.4l.33.07h.33l.4-.07c.66,0,.79.2.79.92l-.07,5.21c0,.66-.59.73-1.25.53h-1.39c-.26,0-.53.07-.73.07h-.13l-.4-.07h-.13c-.26,0-.46.07-.66.07-.4,0-2.44-.26-3.76-.07-.13.07-.53-.07-.66-.07-.26,0-.46.07-.53,1.91,0,.4.07.99.07,1.19v2.97c0,.2.13,2.38,0,2.97.13,3.04,0,2.84,0,3.17,0,.4.4.33.59.33.4,0,1.12-.13,1.32-.13,1.06-.07,3.04-.07,3.23-.07.13,0,.73-.07,1.19.07.33.07.46.33.46.66,0,.86.2,1.98.2,2.18v4.36c0,.53-.2.4-.59.4-.2-.07-.46-.07-.59-.07-.2,0-.79.07-1.06.07h-.13l-.33-.07h-.13c-.26,0-2.51,0-3.7-.13-.13.13-.2.07-.26.2-.07,1.65,0,4.95,0,5.21v7.19c0,.2.07.79-.07,1.19,0,.07-.07.2-.07.4,0,.53-.07,1.19.59,1.19l9.24-.13ZM107.7,164.08h.26v.13h-.26v-.13ZM108.36,159.33c-.07,0-.2.07-.33.2l.07.33c.33,0,.4-.2.46-.33l-.2-.2ZM108.82,156.03c0-.13.13-.26.13-.33-.13-.07-.26-.13-.33-.07-.2.07-.2.2-.2.26l.4.13ZM108.82,139.53v-.13h.26v.13h-.26ZM109.02,148.04c.2,0,.33-.26.46-.33-.13-.07-.33-.2-.46-.2-.07.07-.2.2-.2.33l.2.2ZM109.02,127.39l.46.2c0-.4.13-.86.13-.99v-.13l-.66-.07c0,.2.07.4.13.59.13,0,.2,0,.33.2-.26.13-.26.07-.4.07v.13ZM109.28,160.45c-.13,0-.33.26-.33.33.07.07.26.13.33.13,0-.13.07-.33,0-.46ZM109.48,136.69h-.46v.33c.13.07.33.07.46,0v-.33ZM109.15,164.28v.53l.4-.53h-.4ZM109.94,128.11l-.46-.2c-.07.2-.13.4-.13.53s.33.46.46.59c0,0,.07-.13.13-.13,0-.13-.2-.26-.33-.4.07-.07.2-.2.33-.2v-.2ZM109.68,150.88c-.07,0-.33.2-.33.33.13.07.4.07.46,0l-.13-.33ZM109.74,129.76h.2v-.53c-.07,0-.2-.07-.46-.07l-.07.07v.33l.33.2ZM109.41,134.58v-.33h.13v.33h-.13ZM109.41,135.44v-.26h.13v.26h-.13ZM109.74,158.01c-.13,0-.26.07-.33.07v.4c.07,0,.33.07.4,0l-.07-.46ZM109.81,124.42c-.07.66-.2.86-.2,1.52.07,0,.2.07.26.13l.13-.13c.07-.07-.13-.13-.26-.26.13-.26.53-.53.53-.73,0-.13-.13-.33-.2-.53h-.26ZM109.88,127.26h-.26c0,.07.2.2.26.33v-.33ZM109.68,159.66l.33.07-.07.13-.26-.07v-.13ZM110.01,148.97c.07.07.26.13.33,0,0-.07-.13-.13-.2-.2-.13.07-.13.2-.13.2ZM110.6,152.93l.13-.4c-.13-.13-.13-.26-.13-.26h-.33c-.13.2-.26.46-.26.53l.59.13ZM110.07,127.19l.4-.07-.13-.13c.07-.13.2-.2.33-.2v-1.12c-.07.2-.13.07-.13.33-.07.13-.33.2-.46.33v.86ZM110.07,127.98l.66.07c0-.26-.07-.33-.26-.59l-.4.07v.46ZM110.34,154.64c0,.07-.07.2-.13.26l.73.13c.07-.07.13-.26.13-.33l-.73-.07ZM111.26,150.75c-.2-.2-.26-.33-.53-.33-.2,0-.26.2-.33.33-.13.33-.13.79-.13.99.2.2.4.4.59.4.26,0,.26-.13.4-.2v-1.19ZM110.47,156.03h.33c-.13-.26.07-.66-.07-.73-.07.13-.26.2-.26.4v.33ZM111.39,146.92c-.07-.07-.26-.2-.33-.33h-.33c-.07.2-.2.46-.2.53.26-.07.59,0,.86-.2ZM110.6,125.01c.07,0,.2.07.26.13.07-.2,0-.53.07-.79.07-.13.26-.13.26-.33s-.13-.26-.13-.26c-.4.2,0,.73-.46.99v.26ZM110.73,154.31c.07,0,.33-.13.4-.2-.13-.13-.4-.2-.53-.2l.13.4ZM111.26,149.56l.59-.13c-.07-.4.13-.92.33-1.19-.13,0-.26-.13-.53-.13-.2,0-.59.33-.92.46.26.13.53.2.59.4-.07.2-.13.4-.07.59ZM110.87,123.3c.13-.13.2-.26.2-.4,0-.2,0-.13-.2-.33v.73ZM113.11,150.02h-.33c-.2.07-.13.33-.33.4,0-.26,0-.46-.2-.59h-.4c.07.2.26.33.33.46-.26.2-.59.4-.79.66.2.07.53.2.73.2s.59-.26.99-.4v-.73ZM111.72,153.46c.26-.2.66-.2.92-.26,0-.13-.2-.26-.26-.4-.2.13-.4.13-.59.13-.26,0-.26.13-.4.2l.33.33ZM111.46,157.28v.33h.4v-.33h-.4ZM112.12,134.45h.07c.07-.07.07-.33,0-.46-.07,0-.26.26-.26.33l.2.13ZM112.05,135.77l.33.07-.07.13-.26-.07v-.13ZM112.32,140.65c-.13.07-.2.2-.2.33,0,.26.26.46.53.53.07-.07.26-.13.26-.13v-.59c-.13-.07-.4-.2-.53-.2l-.07.07ZM112.12,155.57v.33c.26-.07.33-.2.33-.33h-.33ZM112.19,152.27c.13.07.26.13.4.13,0-.2-.13-.4-.26-.46l-.13.33ZM112.52,151.34l-.13.33h.4c.13-.07.13-.26.13-.33h-.4ZM113.04,139.6v-.46h-.33v.46h.33ZM114.1,143.89h.13v-.46c-.13,0-.33,0-.46-.13l-.2.13c-.07,0-.13.07-.2.13l.26.33c.13.07.26.07.33.07l.13-.07ZM113.44,141.25l.13-.07v.07l.07.07-.2-.07ZM113.7,141.31l.07-.07v.07h-.07ZM114.36,143.03c.33-.2.33-.4,0-.59v.59ZM115.75,120.52c-.26.13-.46.33-.46.59.13.07.26,0,.33,0q.2-.07.33-.07l-.2-.53ZM115.42,161.64v.2h.4v-.2h-.4ZM115.75,165.66v-.07l.2-.07c0-.13-.26-.26-.33-.26l.13.4ZM116.01,123.49l-.2.13.2-.13ZM116.34,120.46h.73c.13,0,.2,0,.2-.07l.2-.2c-.26-.13-.33-.2-.33-.33v-.13l.33-.4c-.4.2-.53.2-.59.26h-.13c-.33.07-.46.33-.59.66l.2.2ZM117,122.17q0-.07.07-.13c-.2-.2-.33-.33-.53-.33-.26,0-.4.26-.4.46.13.13.26.2.4.26l.13.07q.07,0,.13.07c.13-.13.13-.2.13-.26l.07-.13ZM116.61,144.35l-.13.33v.13h.53c.13-.13.07-.4.07-.59h-.46v.13ZM116.61,142.3l.33.33c.2-.13.2-.46.07-.59-.13,0-.13.07-.2.07l-.2.2ZM117.2,143.82s0-.07-.07-.07h.13l-.07.07ZM117.8,122.64l-.07.07c-.07.07-.13.2-.13.33s0,.2.07.26h.46c.13-.07.2-.2.2-.4s-.2-.33-.33-.33q-.07,0-.13.07h-.07ZM117.99,165.33v-.33h-.13l-.07.33h.2ZM118.06,141.25l.4.07-.13.07v-.07l-.33-.07.07-.07v.07ZM118.32,121.84h.53c0-.13-.13-.33-.33-.53l-.2.53ZM118.59,142.5l.13-.53h-.26l-.13.4.26.13ZM118.85,162.43l.26-.13c0-.07-.13-.13-.2-.26l-.07.4ZM119.38,122.7c.2,0,.4.13.66,0,0-.26-.13-.53-.26-.59-.13.07-.33.07-.53.2l.13.4ZM119.78,120.46h-.07v-.2h.2l-.07.26-.07-.07ZM120.3,164.81c0,.2.2.46.33.46.07-.13.2-.33.2-.46h-.53ZM121.29,121.51c-.26.13-.53.33-.53.53l.79-.13c0-.13-.07-.2-.13-.26l-.13-.13ZM121.56,161.64h-.13v.26h.13v-.26Z"/>
          <path class="cls-1" d="M93.77,185.9l-.2-.2v-.13c-.13-.46-.07-1.25-.2-1.78-.13-.73-.13-1.52-.53-2.11-.33-.53-1.45-1.45-2.24-1.45-.2,0-.59.13-.86.4-1.58,1.32-1.58,2.51-1.58,3.83,0,2.77,2.71,7.33,3.76,8.18,2.51,3.63,6.34,8.78,8.45,13.2.2,1.06.92,3.3.79,3.83-.07.33.26.79.07,1.45.2,2.44-.66,6-2.44,8.51-.13.2-.53.4-.73.53-1.06,2.11-4.88,3.1-7.06,3.1-.2,0-1.39-.33-2.11-.33-2.84,0-6.27-2.57-6.93-5.41-.07-.07-.26-.26-.4-.33,0-.26,0-.66-.07-.86-.07-.2-.26-.26-.4-.46,0-1.32-.26-1.78-.33-2.71-.07-.86.2-.99.13-1.58-.07-.79-.26-2.24-.26-2.44,0-.79.53-.92,1.25-.92h1.72c.26,0,.66-.26,1.06-.26,1.06-.07,1.72-.2,2.18-.2.66,0,.73.26.73,1.45,0,.2.33,1.19.4,2.05.07.46.07,1.45.2,2.18,0,.26.13.66.26.86.13.26.4.73.59,1.19.79.59.92.53,1.58.53,2.84,0,3.37-2.84,3.37-4.42,0-.2,0-.4-.07-.46-.13-.73-.46-2.38-.86-3.23,0-.07-.26-.33-.46-.66-.07-1.19-1.32-2.64-2.24-3.96,0-.2,0-.53-.2-.73-.86-.73-1.91-2.64-2.57-3.1-.53-1.65-1.78-2.64-2.71-4.03-.4-.53-.79-1.52-1.52-2.18-.2-.66-.99-1.91-1.25-2.57-.13-.33-.26-1.32-.4-1.72-.13-.2-.46-.59-.53-.99,0-.26.13-.66.07-.86-.07-.13-.33-.46-.4-.73-.07-.26.07-.2,0-2.24.79-1.06-.2-2.38.73-3.56l.79-1.98c.13-.26.79-.53.66-.99.53-.33,1.06-1.06,1.58-1.45.46-.33.4-.4,1.32-.92,1.19-.59,2.11-.99,3.43-.99.66,0,1.58-.13,2.77-.13.46,0,2.18.13,2.57.4.53.26,1.39.53,2.05.86.07.53.99.66,1.39,1.12.59.86.53,1.06.86,1.32.26.2.26.4.46.86.46,1.25,1.19,3.5,1.12,3.83v4.09c0,.73-.53.99-.79.99-.46,0-.46-.07-1.39-.07h-1.58c-.2,0-.66.2-.92.2h-1.58c-.26,0-.73-.13-.73-.73,0-.4.2-.66.2-.92v-.13ZM83.87,214.87v.26h.4v-.26h-.4ZM85.19,217.9l.2-.4-.26-.07-.2.33.26.13ZM86.78,220.41v.26h.46v-.26h-.46ZM91.13,197.31v.33h.59v-.33h-.59ZM92.65,201.01v.66h.13l.13.07c.07,0,.13,0,.2-.13,0-.13-.07-.2-.13-.26l-.33-.33ZM93.05,219.09v-.46h-.26v.46h.26ZM93.38,196.39c-.13.46,0,.79.07,1.06h.46c0-.2,0-.26-.07-.4,0-.2.07-.46-.07-.66h-.4ZM93.9,217.9c0-.13,0-.4-.2-.59-.07.07-.07.13-.07.13l-.07.07c-.07.07-.07.13-.2.2.2.2.4.2.53.2ZM94.5,220.48h-.53c-.07,0-.13.07-.13.2,0,.07.07.2.13.26l.53-.46ZM94.17,198.76c.13-.2.26-.26.46-.4,0-.07.07-.07.2-.2-.26,0-.4-.07-.53-.07s-.26,0-.4.07c0,.13.13.4.26.59ZM94.04,218.96c.13,0,.26.07.26.13.26,0,.46-.26.46-.46-.13-.07-.4-.2-.59-.2l-.13.53ZM95.55,181.8c-.2,0-.33.2-.33.33.07.07.2.07.33.07.07-.13,0-.33,0-.4ZM95.55,203.78v.33l.59.13v-.33l-.59-.13ZM95.88,216.45l.13-.2c-.07-.07-.07-.13-.07-.2-.07-.07-.07-.2-.2-.26-.13.2-.13.53-.13.73.13,0,.2-.07.26-.07ZM97.34,213.28h-.66c-.13.13-.4.26-.53.33-.2.13-.4.33-.4.46v.26c.13.13.33.13.53.13h.26c.2-.13.79-.59.79-.79v-.4ZM95.95,212.29q0,.07.07.07v.07c0,.07.07.13.13.2.26.07.53.13.86.2h.07l.13.07c.13.07.2.13.33.13h.2l.13-.07h.13v-.2c.07-.07.07-.13.07-.26,0-.2-.26-.53-.53-.79-.07.07-.13.13-.13.2l-.13.13c-.07.07-.13.13-.2.13s-.2-.07-.4-.13c-.2-.07-.4-.13-.53-.13-.26,0-.2.13-.2.13v.26ZM96.21,206.16l.2-.4-.26-.07-.2.33.26.13ZM96.41,202.72l.13-.07h.13c0-.2-.07-.26-.07-.33l-.2-.2c-.26.13-.4.4-.4.59h.4ZM96.81,208.99h.46c0-.13.07-.2.07-.26v-.07c.07,0,.07-.07.07-.13-.13-.07-.2-.13-.2-.2-.07-.07-.2-.13-.26-.13h-.26l-.13.59c.07.07.13.07.13.07l.13.13ZM96.94,214.41l-.26.26v.33c.2.07.53.07.73,0v-.4c0-.26-.13-.2-.2-.2h-.26ZM96.68,217.51c.33.2.66.33.79.33,0-.13,0-.2-.07-.26v-.26l-.73.2ZM96.94,178.5c.07,0,.2-.26.26-.33-.07,0-.2-.13-.2-.13-.07.13-.2.4-.07.46ZM97.93,209.52c-.2,0-.46,0-.59.07-.07.33.26.59.53.66l.53-.46-.07-.46c-.13,0-.2,0-.26.07l-.13.13ZM98.46,205.63l-.13.46c.07.2.26.4.53.4s.4-.26.4-.46c0-.13,0-.26-.07-.26l-.07-.07s-.07,0-.13-.07h-.53ZM99.12,215.13c.2-.07.33-.2.33-.46,0-.13-.33-.53-.53-.66-.26.07-.33.4-.33.59s.13.46.26.73l.26-.2ZM99.12,213.22v-.53h-.33v.53h.33ZM99.51,212.56v-.2c.07-.13.13-.2.13-.33h-.46c0,.2-.07.33-.2.53h.53ZM100.11,208.73c-.2-.13-.26-.13-.4-.2l-.13-.07h-.07c-.13.26-.07.46-.07.73.13,0,.59-.4.66-.46Z"/>
          <path class="cls-1" d="M121.43,219.95c0,.2,0,.4-.07,1.91,0,.59-.33.86-.99.86-.46.07-.79.13-.99.13-.73,0-1.58-.07-2.11-.07-.73-.13-1.58.13-2.38.13-.92,0-1.32-.46-1.32-1.39l-.2-29.17c0-1.19.2-3.37.2-3.56,0-.59-.13-1.45-.13-2.71,0-.46-.07-.99-.07-1.78-.07-.86.26-1.45.07-2.31-.07-.26-.92-.33-1.91-.33h-3.7c-.2,0-.53.2-1.19.2-.46,0-.79-.26-.79-.59,0-.59,0-.73.07-.99.13-1.72-.26-3.23.07-4.55,0-.92,1.65-.99,2.05-.92.59-.13,1.06.07,1.39.07h.2l.46-.13h.2c.2,0,2.05.07,2.31.07h.2l.46-.07h.2l14.39.13c1.19.07,1.06.99,1.06,1.25v1.58l-.07.4c0,.4,0,1.25.13,1.58v1.25c.07.2.07.4.07.66,0,.4-.13.46-.53.46-2.51,0-1.91-.07-2.11-.07l-4.09.13c-.2,0-.46-.07-.73-.07-.2,0-.59-.2-.59.46-.07,1.45.07,3.17.07,5.08v.13l-.2.33v.13c0,.2.2.79.2,1.19,0,4.42.07,9.77.07,14.65v.13l-.07.4v.13c0,2.97.4,8.51.4,9.9v5.35ZM108.16,177.38v.26h.59v-.26h-.59ZM110.6,177.78v-.4l-.4-.4h-.4c-.13.26-.2.66-.13.92.26,0,.46.07.66.13l.26-.26ZM109.88,178.04v.4l.86-.2-.86-.2ZM110.14,179.63v.33h.4v-.33h-.4ZM113.24,177.51c-.2-.13-.33-.2-.33-.2-.53.07-1.72.46-2.05.79.26.13,1.58.33,1.85.2-.07-.4.26-.66.53-.79ZM113.64,179.5v-.59h-.26l-.07-.07h-.13c-.26.33-.4.73.2.92l.26-.26ZM113.44,176.85v-.66h-.4v.66h.4ZM115.16,180.35c.26.07.53.07.66-.26v-.26c-.33-.13-.66-.2-.92-.2s-.46.26-.53.53c.26,0,.53.13.79.2ZM115.49,211.57v-.46l-.79.2.79.26ZM115.16,212.62l-.26.33c.13.13.4.26.53.26.07-.07.13-.07.13-.13.07-.07.13-.07.26-.2l-.66-.26ZM114.89,214.21v.26h.59v-.26h-.59ZM115.95,216.32c.07-.07.13-.13.13-.2l.07-.07q0-.07.13-.2c-.26,0-.33-.07-.46-.07-.13-.07-.26-.13-.53-.2,0,.2-.13.26-.13.33.07.07.07.13.13.13l.07.07c.13.07.2.13.2.2h.4ZM115.35,208.93l-.13.4c.13.13.4.26.59.26l.13-.66h-.59ZM115.29,207.28c.07.2.13.26.26.33l.2.26c.13.2.33.33.4.33.13,0,.2-.07.26-.07l.07-.07h.07v-.59c-.2-.13-.33-.13-.4-.2-.13-.07-.2-.13-.26-.33h-.4l-.07.07v.07c-.07,0-.07.07-.07.07l-.07.13ZM115.68,210.91s.07.53.2.59c.07,0,.13,0,.2-.13l.13-.07q0-.07.13-.2l-.66-.2ZM116.02,195.86l-.13-.07.13-.26.13.07-.13.26ZM115.95,218.96v.33h.59v-.33h-.59ZM116.74,203.52c-.13-.13-.33-.13-.46-.13l-.13.4s.07,0,.07.07h.07c.13.07.2.13.26.26l.13-.4q.07.13.13.2c0,.07.07.13.13.2l.46-.13c0-.26-.26-.46-.46-.46,0,.13-.07.13-.26.13l.07-.13ZM117.07,213.75v-.4l-.53-.13c0,.2-.13.26-.2.4l.73.13ZM118.06,212.82v-.2c.07-.07.07-.13.07-.2l-.59-.13c-.07.13-.07.2-.07.26h-.07l-.07-.07c-.07,0-.13-.07-.26-.07s-.26.13-.33.2c-.13.13-.13.2-.26.26.13.2.4.33.73.33.13-.07.2-.26.26-.4h.59ZM116.67,203.71q-.07,0-.13-.07h.13v.07ZM116.81,204.9h.53c-.2-.33-.46-.4-.73-.33.13.13.2.33.2.33ZM116.61,205.5v.26l.4-.2-.07-.26-.33.2ZM116.87,203.32h.07s0,.07.07.07h.53v-.46c.2,0,.4,0,.53-.13,0-.07,0-.13-.07-.2,0-.07-.07-.13-.07-.26-.07.07-.13.13-.26.13.07-.07.13-.07.26-.2v-.4l-.86-.13c0,.33,0,.59.13.73h.46c-.4.13-.73.2-.99.33v.4s.07,0,.07.07h.07l.07.07ZM117.07,207.01c.2,0,.33-.13.46-.26,0-.13-.13-.33-.33-.33-.07,0-.2.13-.4.33l.26.26ZM116.87,207.34v.4l1.19-.2-1.19-.2ZM117,176.99v.53c.13.13.2.13.26.13l.07-.07h.13c.07-.13.07-.26.07-.33v-.26h-.53ZM117.33,217.84c.4,0,.92-.26.99-.66-.46-.13-.86.07-1.06.33l.07.33ZM117.33,205.17l.26.26h.13l.07-.07h.13c.07,0,.13.2.2.26.07.07.07.13.2.2.13-.13.2-.33.2-.33-.07-.2-.2-.26-.26-.4l-.13-.07s0-.07-.07-.07v-.07l-.07-.07h-.4l-.26.33ZM117.33,211.44v.33h.33v-.33h-.33ZM117.99,200.68l.26-.26c-.13-.26-.4-.4-.53-.4-.13.07-.26.33-.26.53h.13l.26.13h.13ZM117.73,209.06c-.13.13-.26.2-.26.4,0,.33.2.33.2.33h.4c.13-.13.26-.4.26-.53-.13-.13-.4-.26-.53-.26l-.07.07ZM118.32,214.41l-.13-.59c-.26.13-.53.26-.73.53.13.2.59.07.86.07ZM117.8,190.05c.13-.26.26-.59.26-.79-.2.13-.46.33-.46.46,0,.26.13.26.2.33ZM117.8,218.76c0,.07.07.13.07.26.13,0,.2.07.33.13l.13-.99c-.13-.13-.4-.2-.53-.2-.07.2-.07.4,0,.53v.26ZM117.99,215v.26h.4v-.26h-.4ZM118.13,179.16c0,.2.13.4.26.53.13-.2.2-.46.2-.59-.13,0-.2,0-.26.07h-.2ZM118.39,212.62v.26h.4v-.26h-.4ZM118.92,217.31l.2-.4-.26-.07-.2.33.26.13ZM118.72,219.09c.2,0,.33.07.46.07l.2.07h.13c.33,0,.4-.33.4-.46-.4,0-.79,0-1.06-.13l-.13.46ZM119.45,209.98v-.46c-.13-.13-.26-.13-.4-.13-.13.2-.26.46-.2.73.2.07.53,0,.59-.13ZM119.18,177.18v-.4h-.33v.4h.33ZM120.04,206.68h-.46c-.07.13-.2.33-.33.46-.07.13-.2.2-.4.33.53.26.92.4,1.39.33-.07-.2-.2-.2-.26-.26l-.07-.07c.13-.07.13-.2.13-.33v-.46ZM118.92,213.15v.59l.53-.13v-.26l-.07-.07v-.13h-.46ZM119.91,216.78v-.66c-.13,0-.26-.13-.4-.26-.07.13-.13.13-.26.2l-.13-.2-.13.13c-.07.07-.07.2-.07.33,0,.2.07.59.59.59.13,0,.26,0,.33-.07l.07-.07ZM118.98,201.54l.59-.13c-.07-.26-.33-.46-.53-.4-.07.07-.13.2-.07.26v.26ZM119.84,219.82c-.33,0-.66.46-.79.79l.59.13c.33-.2.59-.53.73-.92h-.53ZM119.51,215.79c.2-.13.2-.4,0-.53-.07.13-.26.13-.26.13,0,.13.07.2.13.26l.13.13ZM120.04,205.1c-.2,0-.33,0-.53.07v.59c.33,0,.73,0,1.06.13.13-.13.07-.53-.07-.79h-.46ZM120.04,212.56l-.4.4q.07.07.13.07v.07c.07,0,.13.07.26.07.26,0,.53-.26.53-.46l-.53-.13ZM120.04,217.51c0,.26.07.4.07.53l.07.13v.07c.2.07.46.07.66-.07,0-.26-.13-.53-.26-.66h-.53ZM120.44,214.87v.07c.13,0,.2-.07.33-.13h.07l.07-.07c-.07-.26-.4-.46-.59-.4,0,.2,0,.33.07.4l.07.13Z"/>
        </g>
        <g id="Calque_3" data-name="Calque 3">
          <polygon class="cls-1" points="33 49.33 36.52 127.31 69.19 118.7 55.7 222.84 46.89 138.91 24.05 146.79 8.74 49.33 33 49.33"/>
        </g>
        <g id="Calque_3-2" data-name="Calque 3">
          <polygon class="cls-1" points="170.21 49.33 166.69 127.31 134.02 118.7 147.51 222.84 156.32 138.91 179.16 146.79 194.47 49.33 170.21 49.33"/>
        </g>
        <g>
          <path class="cls-1" d="M185.25,189.11c-4.02,14.79-3.39,27.92,1.37,29.56,2.69-1.79,5.11-4.95,6.64-9h0c4.18-11.06,7.32-22.6,9.31-34.25.73-4.27.24-8.22-1.18-11.12-4.94-.99-12.12,10.01-16.14,24.8Z"/>
          <path class="cls-1" d="M183.45,188.62c3.77-13.86,10.17-24.74,15.62-27.42-.8-.69-1.71-1.21-2.72-1.48l-11.29-3.07c-4.89-1.33-10.55,3.09-13.31,10.4h0c-4.18,11.06-7.32,22.6-9.31,34.25h0c-1.32,7.7,1.33,14.38,6.22,15.7l11.29,3.07c1.01.27,2.05.29,3.1.1-3.35-5.07-3.36-17.69.4-31.55Z"/>
          <path class="cls-1" d="M167.19,175.55c-.07-.05-.13-.1-.21-.12l-7.55-2.05c-.84-.23-1.97,1.26-2.54,3.32l-2.38,8.75c-.56,2.06-.34,3.92.5,4.15l7.55,2.05c.08.02.16.01.24,0,1.26-5.42,2.72-10.8,4.38-16.11Z"/>
        </g>
        <g>
          <path class="cls-1" d="M17.66,189.11c4.02,14.79,3.39,27.92-1.37,29.56-2.69-1.79-5.11-4.95-6.64-9h0c-4.18-11.06-7.32-22.6-9.31-34.25-.73-4.27-.24-8.22,1.18-11.12,4.94-.99,12.12,10.01,16.14,24.8Z"/>
          <path class="cls-1" d="M19.46,188.62c-3.77-13.86-10.17-24.74-15.62-27.42.8-.69,1.71-1.21,2.72-1.48l11.29-3.07c4.89-1.33,10.55,3.09,13.31,10.4h0c4.18,11.06,7.32,22.6,9.31,34.25h0c1.32,7.7-1.33,14.38-6.22,15.7l-11.29,3.07c-1.01.27-2.05.29-3.1.1,3.35-5.07,3.36-17.69-.4-31.55Z"/>
          <path class="cls-1" d="M35.72,175.55c.07-.05.13-.1.21-.12l7.55-2.05c.84-.23,1.97,1.26,2.54,3.32l2.38,8.75c.56,2.06.34,3.92-.5,4.15l-7.55,2.05c-.08.02-.16.01-.24,0-1.26-5.42-2.72-10.8-4.38-16.11Z"/>
        </g>
      </g>
      <path class="cls-1" d="M121.55,44.44c0-15.48,12.59-28.08,28.08-28.08s28.08,12.59,28.08,28.08h0s16.74,0,16.74,0l.04-4.62c.01-1.37-1.09-2.5-2.46-2.51l-7.08-.06c-.49-2.4-1.22-4.71-2.16-6.91l5.81-4.14c1.12-.8,1.38-2.35.58-3.47l-5.98-8.38c-.8-1.12-2.35-1.38-3.47-.58l-5.78,4.12c-1.78-1.63-3.72-3.08-5.79-4.33l2.27-6.77c.44-1.3-.27-2.71-1.57-3.15l-9.76-3.27c-1.3-.44-2.71.27-3.15,1.57l-2.25,6.72c-1.34-.15-2.69-.24-4.07-.24-1.07,0-2.13.06-3.17.15l-2.15-6.81c-.41-1.31-1.81-2.04-3.12-1.62l-9.82,3.09c-1.31.41-2.04,1.81-1.62,3.12l2.13,6.77c-2.11,1.2-4.08,2.6-5.9,4.18l-5.75-4.26c-1.1-.82-2.66-.58-3.48.52l-6.13,8.27c-.82,1.1-.58,2.66.52,3.48l5.7,4.22c-1,2.18-1.78,4.47-2.33,6.85l-7.14-.06c-1.37-.01-2.5,1.09-2.51,2.46l-.05,5.67h16.74Z"/>
      <path class="cls-1" d="M25.47,44.44c0-15.48,12.59-28.08,28.08-28.08s28.08,12.59,28.08,28.08h0s16.74,0,16.74,0l.04-4.62c.01-1.37-1.09-2.5-2.46-2.51l-7.08-.06c-.49-2.4-1.22-4.71-2.16-6.91l5.81-4.14c1.12-.8,1.38-2.35.58-3.47l-5.98-8.38c-.8-1.12-2.35-1.38-3.47-.58l-5.78,4.12c-1.78-1.63-3.72-3.08-5.79-4.33l2.27-6.77c.44-1.3-.27-2.71-1.57-3.15L63.01.35c-1.3-.44-2.71.27-3.15,1.57l-2.25,6.72c-1.34-.15-2.69-.24-4.07-.24-1.07,0-2.13.06-3.17.15l-2.15-6.81c-.41-1.31-1.81-2.04-3.12-1.62l-9.82,3.09c-1.31.41-2.04,1.81-1.62,3.12l2.13,6.77c-2.11,1.2-4.08,2.6-5.9,4.18l-5.75-4.26c-1.1-.82-2.66-.58-3.48.52l-6.13,8.27c-.82,1.1-.58,2.66.52,3.48l5.7,4.22c-1,2.18-1.78,4.47-2.33,6.85l-7.14-.06c-1.37-.01-2.5,1.09-2.51,2.46l-.05,5.67h16.74Z"/>
    </g>
  </g>
</svg>