<?xml version="1.0" encoding="UTF-8"?>
<svg id="Calque_2" data-name="Calque 2" xmlns="http://www.w3.org/2000/svg" viewBox="0 0 266.57 65.41">
  <defs>
    <style>
      .cls-1 {
        fill: #fff;
        stroke-width: 0px;
      }
    </style>
  </defs>
  <g id="Calque_2-2" data-name="Calque 2">
    <g>
      <path class="cls-1" d="M1.9,64.64l-.26-.26h-.17c-.34,0-.34.09-.6.09-.34,0-.26-.17-.52-.34l.26-25.86C-.08,33.18.27,29.13.09,25.16c-.09-.34-.09-.43,0-.78v-5.69l.26-.69v-6.38C-.08,11.38,0,8.27,0,6.38v-3.62C0,1.64.35,1.46,1.21,1.46h1.64l.43-.09h.26c.26,0,4.74-.17,5.08-.17.69,0,1.46.09,2.15.26h.69c.17.17.52-.17.78-.17h.78c.43,0,.43.17,1.12.17.26,0,.78-.09,1.12-.09.69,0,2.24.09,3.19.69.34.6,1.38.52,1.98,1.12.34,0,.69.43,1.12.78,4.4,3.71,5.43,10,5.43,15.43,0,.26-.17.34-.26.43.52,3.45-.43,7.58-1.98,10.34-.69.34-.86,1.55-1.64,2.33-.6.34-1.21.95-1.21,1.81,0,1.03,3.1,15.08,3.88,18.79.09.09.17.26.26.26.95,3.79,1.38,6.72,2.07,8.45.17.43.34,1.72.34,1.9,0,.43-.43.86-1.38.69-.26-.17-.86-.09-1.21-.09h-2.41c-.78,0-1.38-.09-2.07-.09-1.46,0-1.03.17-2.59.17-.69,0-1.29-1.03-1.38-1.9-.26-1.98-.95-4.65-1.38-6.89-.26-1.03-.34-3.71-.78-5.6-1.03-4.05-1.55-8.36-2.41-12.5-.09-.09-.26-.34-.43-.34h-.43l-1.03-.09h-.43c-.17,0-.6.09-.6.43-.09.52-.26,1.03,0,1.21-.09,0-.26.52,0,.6-.26.6-.09,1.55-.09,1.9v5.77c0,.26.17,1.72.17,2.24,0,0-.17-.09-.17.17l.26,10c.17.26.17,1.03.09,1.46-.17,1.03.09,1.55.09,2.24,0,1.12-.17,1.29-1.21,1.29h-2.5l-.86-.17h-.6l-.6.17c-.69.09-1.72.26-2.41.26h-.17ZM7.25,55.85l-.17-.52-.17.09.17.43h.17ZM8.02,10.86l-.17-.26v-.17c0-.17-.09-.43.17-.52l-.69-.09c.26.6.26,1.12.34,1.46l.34-.26v-.17ZM8.02,51.71v.26h.52v-.26h-.52ZM8.11,38.61v.26h.34v-.26h-.34ZM8.37,3.02h.43v.17h-.43v-.17ZM8.8,36.02l.34-.43-.34-.34c-.17.09-.34.34-.34.52l.34.26ZM8.8,40.16c-.17,0-.34.09-.34.34,0,.34.26.26.34.26.09-.26.09-.6,0-.6ZM8.8,44.99l.17-.09.09.34h-.17l-.09-.26ZM9.06,27.41v-.52h-.17v.52h.17ZM9.66,5.95l.26-.17.09.17-.34.17v-.17ZM9.83,22.84c.17.34.17.78.26.95,0,.17-.09.26,0,3.96-.26.6,0,.69.34.69.69,0,1.38.09,1.55.09,1.03,0,2.24-.52,2.93-.86.86-.43,2.24-3.53,2.24-4.83l-.09-5.43c.43-.52-.78-4.48-.6-4.14l-.17-.69-.26-.34c0-1.12-1.21-2.07-2.5-2.58-.69-.35-1.98-.43-2.76-.35-.43.09-.86.26-.86.86,0,.34-.09,1.03-.09,1.81,0,.6,0,.86.17,1.21l-.17,9.65ZM10.61,5.08c.17-.34-.17-.86-.43-1.12-.43.34-.34.78-.17,1.12h.6ZM10.43,31.71l-.43-.43v.52l.43-.09ZM11.81,7.76l-1.12-.09v.86c.17.09.26,0,1.12.17v-.95ZM11.04,6.12l.6.26v-.34c0-.34.6-.6.6-.86-.09,0-.17-.17-.52-.17l-.69,1.12ZM13.88,29.99c.09-.17,0-.34-.09-.43-.17,0-.52.34-.52.6.17.17.43.17.6.17v.6c.43,0,.78-.26.78-.26-.26-.34-.6-.43-.78-.43v-.26ZM14.23,5.17l.17-.34c-.17-.09-.43-.26-.78-.26-.17.09-.17.26-.26.43l.86.17ZM13.88,6.64v-.43h-.26v.43h.26ZM14.57,32.58l1.29.43c0-.26-.17-.52-.17-.52-.17,0-.26,0-.34.09h-.52l-.17-.86c-.34.17-.6.52-.78.86h.69ZM14.92,8.79l-.09-1.64c-.26.17-.69,1.38-.78,1.64h.86ZM14.83,33.27c-.09.17-.17.17-.17.17l-.09.09c-.09,0-.17.09-.26.17v1.21c.17,0,.34.09.43.17.26-.26.43-.52.43-.86,0-.17-.09-.34-.09-.43l-.26-.52ZM14.83,4.91l.26.34v.09h.52v-.09l-.09-.34v-.09h-.69v.09ZM15.43,30.16h-.6c.17.52.34.86.6,1.03.17-.34.17-.78,0-1.03ZM15.35,36.88h.34c0-.26-.09-.52-.26-.6-.26,0-.52.34-.52.52.17.09.34.09.43.09ZM16.12,34.99c-.43,0-.69.17-.69.52,0,.26.17.35.43.35h.17c.09-.17.09-.35.09-.52v-.34ZM16.04,32.75c-.17.35-.26.69-.09,1.04.26,0,.52-.17.52-.17,0-.34-.26-.69-.43-.86ZM15.86,7.24c.17.26.6,1.29.78,1.38,0-.09.17-.26.17-.26-.26-.17-.43-1.12-.95-1.12ZM16.47,36.63c.17-.17.17-.52,0-.78-.34.17-.52.52-.52.78h.52ZM16.47,6.21c.09-.26-.09-.35-.17-.52-.09.17-.26.34-.26.52h.43ZM16.73,43.18c.17-.17.17-.43.17-.43-.17-.17-.6-.17-.78.09.17.26.43.34.6.34ZM16.3,30.34h.69c0-.26-.17-.6-.17-.6l-.52.6ZM17.24,41.88l-.17-.69c0-.09-.09-.26-.17-.43-.34.34-.52.69-.52,1.03q.17,0,.26.09h.6ZM16.98,39.38c.34,0,.6-.34.6-.52-.17-.17-.52-.17-.78-.17l.17.69ZM16.9,36.71c.17.34.17.52.17.95.34.17.52,0,.86,0v-.52c-.09-.17-.26-.26-.43-.43h-.6ZM16.98,34.47v.43l.69-.17v-.43l-.69.17ZM17.5,26.46l-.26.26c-.09.09-.17.17-.17.34,0,.09,0,.17.09.26.34.17.78.34,1.03-.09v-.6l-.69-.17ZM17.42,42.66l.26-.43-.34-.17-.26.43.34.17ZM17.33,25.34v.17h.52v-.17h-.52ZM18.11,4.57c0-.26-.09-.26-.17-.34-.26.26-.43.52-.52.78.09,0,.26.17.26.17.17-.17.43-.34.43-.6ZM17.93,9.39l.52-.43-.34-.26c0,.09-.26.09-.34.09l.17.6ZM18.28,49.47c0-.17,0-.34-.09-.43-.17.09-.26.26-.26.26l.34.17ZM18.88,42.75l-.78-.17c-.17.26-.17.43,0,.6.17,0,.52-.17.78-.43ZM18.97,9.05c-.26.26-.78.43-.78.86,0,.26.52.26.78.34.09-.34.09-.86,0-1.21ZM19.05,10.69c-.17-.17-.34-.17-.52-.17l-.09.6c.09,0,.26.09.26.09.17-.09.34-.09.34-.09v-.43ZM18.71,25.77l.78-.17c0-.34-.43-.6-.6-.6l-.17.78ZM19.57,28.53l.17-.43-.34-.17-.17.43.34.17ZM20.26,23.1c-.26-.6-.43-.78-.95-.86l.95.86ZM19.48,4.83c-.09.26.17.6.34.6.09-.09.09-.34.26-.43l-.6-.17ZM20.86,16.2c.09-.09.26-.43.26-.6-.17,0-.34-.09-.34-.09-.17.26-.52.43-.43.52l.52.17ZM20.52,14.82h.43c.09-.34-.17-.34-.43-.43v.43ZM20.95,24.04v.34h.78v-.34h-.78ZM21.55,17.06c.26.09.6.26.69.26-.17-.09-.26-.43-.26-.43-.17,0-.43.17-.43.17ZM21.81,5.69v.26h.34v-.26h-.34ZM21.81,17.93l.09-.17.26.34-.09.09-.26-.26ZM22.07,10.08c.09,0,.34-.17.43-.26.09-.43-.17-.69-.43-.95v1.21ZM22.07,15.51v.43c.17,0,.43-.34.43-.43h-.43ZM22.84,12.06c.26-.34.17-.6.09-.86-.43.26-.6.43-.78.69l.69.17ZM23.53,12.24c0,.26.34.52.43.6-.09-.6-.34-.52-.43-.6ZM25.17,54.38c0,.09.17.26.26.43.17-.17.17-.34.17-.43h-.43ZM25.86,55.5h-.43v.69c.17.17.52.35.69.35l-.26-1.04ZM26.29,58.43l-.17-.09.17-.34.17.09-.17.34Z"/>
      <path class="cls-1" d="M32.67,64.29c-1.46,0-1.46-.6-1.29-1.21l.34-1.81c.17-1.55.43-3.1.78-4.22-.09-.52.17-.86.26-1.46.26-1.64.52-3.1.6-5.08,0-.26.09-.52.17-.78.09-.69.09-1.55.26-2.33,0-.34.34-1.38.43-1.9.09-.35.26-1.04.26-1.47.17-1.03.52-2.84.86-3.71.09-.43.26-1.55.43-2.33l.09-.69c.09-.95.26-2.5.52-3.36,0-.09,0-.26.09-.34v-.86c.09-.09.09-.26.09-.34.17-.6.26-1.29.34-1.98.09-.52.09-1.29.17-1.98,0-.09.09-.6.17-.86.09-.52.17-1.04.26-1.72,0-1.03.26-2.76.43-3.79.09-.52.34-1.04.52-1.72.09-.6.26-1.72.34-2.67,0-.26.17-.78.26-1.12l.52-4.48c0-.43.52-1.9.69-2.84.17-.52.09-1.03.17-1.64v-.26l.17-.6v-.26c.09-.95.09-1.81.34-2.67-.09-.43-.09-.78,0-1.21.26-1.29.69-1.46,1.55-1.46,3.02,0,6.12,0,9.14.09,1.29,0,1.29.17,1.46,1.38.09.52.17,1.29.52,2.24.17.69.09,1.38.17,2.15.17,1.12.26,3.02.34,4.39,0,.35.34.95.43,1.47l.34,2.58c.09.6,0,1.72.34,2.93v.95c0,.17.09.34.09.52l.26,1.21c0,.17.09.35.09.52.26,1.21.43,4.31.69,6.38.09.52.43,1.29.52,1.98.26,2.59.43,5.43.78,8.19,0,.43.26,1.03.34,1.64.17.86.26,2.67.26,2.93,0,1.55.52,2.76.52,4.4,0,.43.09,1.21.09,1.72,0,.69-.09.95.17,1.72l.26,1.12c.26,1.03.43,2.33.43,3.36.09.86.26,2.93.52,3.71.17,1.21.17,2.67.43,3.96.17.95,0,1.64-1.29,1.64-.69,0-6.21.17-7.41-.26-.43-.17-.52-.52-.6-1.03-.09-.34-.26-.69-.26-1.03,0-.86.09-2.07.09-2.67-.09-.09-.09-.26-.17-.43l-.43-2.93c-.09-.17-.09-.52-.09-.78v-.17l-.17-.34v-.17l-.34-2.76c-.09-.17-.09-.26-.26-.35h-5.34l-.6-.09c-.43,0-.78,0-1.12.34-.17,1.55-.26,3.79-.69,5.26-.26,1.12-.34,2.24-.43,3.36-.09.95-.43,1.9-.6,2.93-.09.17.09,1.12-1.03,1.12h-7.24ZM43.79,14.31l-.34.43c.26.52.26,1.03.78,1.12.09-.26.43-.43.43-.78,0-.26-.26-.52-.43-.78h-.43ZM44.39,19.39l-.6-.34c0,.09-.26.26-.26.52s.26.6.26.69q.09-.09.17-.09l.26-.26c.09,0,.17-.09.17-.09v-.43ZM44.05,9.31h.43c.09-.09.34-.34.52-.34v-.43h-.69c-.26.17-.52.43-.52.52l.26.26ZM49.05,40.85c0-.26-.34-1.55-.52-2.41-.09-.86.09-2.15,0-2.67-.17-.69-.52-1.81-.52-2.07l-.78-10.86c-.78,2.33-1.21,5.43-1.46,8.62-.09.69-.43,1.46-.52,1.98-.09.43.09,1.04,0,1.38,0,.09-.09.26-.09.43l-.34.95c0,.17-.09.26-.09.43-.09.86,0,1.9-.09,2.84-.17.34-.26,1.12-.26,1.38,0,.34,0,.6.17.78,2.33-.34,3.19,0,4.48,0v-.78ZM44.65,12.41h.17l.26.09c.17-.26.34-.69.34-.86s-.17-.43-.26-.6c-.17.17-.52.34-.52.52v.86ZM45.6,2.76c-.17.26-.43.6-.6.52.26.17.43.43.6.43v-.95ZM47.75,15.68l-.6-.09-.26.26c.17.34.34.52.6.52.34,0,.26-.09.26-.09v-.6ZM48.01,50.16l.26-.09.09.17-.26.09-.09-.17ZM48.18,26.46c0,.17.43.43.69,0h-.69ZM48.27,43.35h.34v.17h-.34v-.17ZM48.96,17.67v-.17l.26-.17.09.17-.34.17ZM49.05,22.32h1.03c0-.09,0-.34-.17-.43-.26.26-.69.26-.86.43ZM50.34,12.58c-.09,0-.26-.09-.43-.17-.34.26-.6.78-.6,1.03.09,0,.17.17.69.17.09-.26.34-.34.34-.69v-.34ZM49.39,28.61h.6v-.26h-.6v.26ZM50.25,44.47c-.09,0-.43.17-.52.26.17.09.43.17.43.17.09-.17.09-.34.09-.43ZM50.25,26.63l-.26.26c.34.17,1.03.34,1.29.34.34,0,.43-.09.52-.26-.34-.09-.86-.34-1.21-.34h-.34ZM50.08,32.83h.43c0-.34-.17-.34-.43-.43v.43ZM50.17,35.25v.17h.6v-.17h-.6ZM50.34,50.42h.43v.17h-.43v-.17ZM51.11,18.1l.43-.34c-.34-.09-.69,0-.95,0,0,.09.26.34.52.34ZM51.03,43.09h-.17v-.26h.17v.26ZM51.29,41.37v-.43h-.26v.43h.26ZM51.29,49.98v-.43h-.26v.43h.26ZM51.29,20.17h.17v-.6h-.17v.6ZM51.8,29.04c0,.09-.34.26-.43,0h.43ZM51.37,30.51h.43v.17h-.43v-.17ZM51.46,39.47s.09,0,.17-.17c.09.17-.09.17-.17.17ZM51.72,38.52l-.17-.09.09-.34h.17l-.09.43ZM51.98,37.49c.34-.17.6,0,.95,0,.26,0,.52-.34.52-.43-.95,0-1.38-.17-1.64,0l.17.43ZM51.89,49.9c.17.09.26.17.26.34h.69c0-.17.09-.34.09-.34h-1.03ZM52.49,33.44c-.26.17-.26.43-.09.69h.69c0-.17.09-.34.09-.34-.09-.43-.26-.86-.86-.95-.17.09-.26.43-.26.6.09,0,.34-.09.43,0ZM52.58,39.64c0-.09.17-.26.17-.43-.17-.09-.34-.09-.43-.09-.17.09-.17.26-.26.34l.52.17ZM52.06,54.29v.43h.52v-.43h-.52ZM52.92,45.93c.26-.26.52-.52.52-.78s-.43-.52-.43-.6c0,.09-.09.17-.17.26l-.43.6c-.09.09-.09.17-.17.26.26.09.6.26.69.26ZM52.32,23.96l.17-.09.17.17-.17.09-.17-.17ZM52.67,35.76v.43l.34.35c.09-.09.26-.17.26-.17,0-.34-.09-.52-.09-.6h-.52ZM52.92,42.66v-.43h-.26v.43h.26ZM52.67,56.02l.09.69.69-.17-.78-.52ZM53.01,27.41v.43h.43c0-.09.09-.26.09-.26l-.52-.17ZM53.87,35.59v-.52c-.09,0-.26-.17-.43-.17-.17.09-.34.43-.34.6h.17l.43.09h.17ZM53.61,48h-.43c0,.26.17.6.43.69v-.69ZM53.87,40.59c0,.09.09.09.09.17.17.34.26.95.26,1.21h.69c-.09-.26-.26-.86-.26-1.21-.34-.34-.78-.6-1.21-.52,0,.09.09.09.09.17l.34.17ZM53.44,55.5h.43c0-.34-.17-.34-.43-.43v.43ZM54.04,37.57c.26-.34.26-.78.26-1.03-.09,0-.26-.09-.43-.09l.17,1.12ZM54.3,33.44l.17-.34c-.09-.09-.34-.09-.43-.09,0,.09.17.26.26.43ZM54.13,21.11v.17h.52v-.17h-.52ZM54.13,47.74h.34v.17h-.34v-.17ZM54.47,22.92c.26,0,.43-.09.43-.09,0-.26-.26-.43-.43-.43-.09.26,0,.43,0,.52ZM54.47,28.35l.43.17v.17l-.43-.17v-.17ZM55.77,25.25v-.52c-.09-.17-.26-.34-.34-.43-.26.09-.6.43-.6.69s.17.26.17.26h.78ZM56.11,37.83c.34,0,.43-.09.69-.17-.26-.52-.69-.26-1.21-1.03.52-.26.6-.69,1.03-1.03-.09-.17-.09-.34-.26-.43h-.69c-.34.34-.86.69-.86.95s.43,1.21.69,1.64c.17.09.26.09.6.09ZM55.42,31.37c-.09,0-.34,0-.43-.17v.6c.09,0,.26-.09.43,0v-.43ZM55.08,33.27c.09,0,.43-.17.43-.26-.09-.17-.26-.17-.26-.17-.17,0-.17.34-.17.43ZM55.08,34.3c.34.26.78.09,1.12-.09-.26-.43-.86-.43-1.12-.34v.43ZM55.34,40.68c.09-.09.26-.09.26-.09,0-.17-.17-.34-.26-.43,0,.09-.26.17-.26.17l.26.35ZM55.6,32.15c0,.09-.09.34-.34.34l.34-.34ZM56.72,49.55c.26,0,.6-.17.86-.26-.09-.17-.34-.17-.52-.43-.09-.26-.09-.6-.09-.86-.09.43-.52.43-.95.6,0,.17.26.95.69.95ZM58.53,55.93c-.86,0,.52-1.21-.78-1.21-.26,0-.34.17-.52.17.26.09.52.26.52.52l-.26.26c.52.78.34,1.29,1.03,1.29.26,0,.34-.69.43-1.03h-.43ZM57.49,41.97l.43.09v.17l-.43-.09v-.17ZM58.61,54.47l.26-.35c-.34-.17-.78-.17-1.12,0,.09.09.17.26.17.35h.69ZM58.18,53c-.26,0-.09.43.09.69,0-.34-.09-.6-.09-.69Z"/>
      <path class="cls-1" d="M81.45,47.14c0-.34-.09-1.46-.09-2.15s0-1.64.09-2.5c0-.26-.09-.52,0-.78,0-.34.09-.78.09-1.03,0-1.04-.43-.86-.78-.86-.26,0-1.21.09-1.55.09-1.81,0-1.21-4.14-1.21-4.31-.09-.34-.09-.95-.09-1.29,0-.26-.09-.95.09-1.98.09-.26.43-.69.69-.78h12.32c.6.17.6.86.6,1.38l-.17,1.98v14.39c0,.35.09.35.09.6.26.95,0,2.15,0,3.28,0,.86-.09,1.72-.09,2.67,0,.09.17.34.17.6,0,.43.09,1.38.09,1.64v5.43c0,.86-.26,1.03-1.21,1.03s-1.98-.09-2.24-.09c-1.72,0-1.98-.09-2.41-2.33l-.26-.34c-.34.09-.6.69-.95.95-.69.43-1.81,1.55-2.76,1.98-.69.34-2.84.69-3.19.69-1.98,0-3.96-.17-5.86-.78-.43-.17-2.24-.95-3.02-1.9-.69-.69-1.47-1.55-2.24-2.67-.26-.52-.52-1.64-1.03-2.5-.26-.95-.69-2.15-.95-3.88,0-.95-.09-.6-.09-1.38,0-.26.09-.69,0-.78-.09-.17-.09-.52-.09-.78,0-.43.09-1.03.17-1.47.09-.26-.09-.69,0-1.03.09-.6,0-1.38,0-1.72,0-.78.09-1.38.09-2.41,0-.17.09-1.04-.09-1.55-.09-.17.09-.6,0-.86-.09-1.38.34-2.67-.26-4.31l.09-20.77c.09-.52,0-1.38.09-2.07.09-1.03.34-2.24.52-3.36,0-.34.09-.78.17-1.29l.43-.95c.17-.52.6-1.04.69-1.64.78-2.76,2.5-4.05,4.74-5.52.34-.26.95-.86,1.38-1.03.34-.17.78-.17,1.12-.26.17,0,.6-.34.95-.34.95-.09,2.76-.17,3.02-.17s2.24,0,3.36.17c.52,0,1.21.43,1.64.6,2.07.6,6.03,3.02,6.64,5,.09.6.52.95.69,1.38,0,.09.26.43.43.69.86,2.07,1.03,4.4,1.03,6.55,0,.26-.17,2.41-.26,3.88v2.16c0,.69.09,1.98-1.29,1.98h-7.76c-1.12,0-1.21-.86-1.12-1.55.09-.69-.09-1.46.17-2.15l.09-6.46c0-2.76-.6-3.79-3.71-3.79-1.38,0-2.33,1.03-2.59,2.67-.09.52-.17,2.93-.09,4.22v3.71c0,.78-.17,2.07-.17,2.33v.26l.17.43v.26c.09,1.21-.26,2.93-.17,4.48,0,.34.34,1.47.34,2.16,0,3.45-.09,10.43-.09,10.69v3.36c0,.34-.26,1.81-.26,2.07v8.1c0,.34.09.34.17.43,0,.95.86,2.84,2.07,3.1.26.09,1.03.17,1.29.17.95,0,2.24-.78,2.33-1.81.26-1.38,0-4.22,0-4.57v-3.36ZM68.78,24.22v-.6c-.34,0-.69.34-.69.6h.69ZM68.44,34.9c-.09.17-.09.34,0,.52.34-.17.09-.34,0-.52ZM68.78,28.78l.52.52c.34-.17.78-.52.78-.78,0-.17-.17-.34-.43-.43-.26-.09-.43-.09-.6-.26l-.26.95ZM70.51,45.5l.34-.35c-.17-.26-.52-.52-.69-.52-.17.17-.26.52-.26.78h.17l.26.09h.17ZM70.33,31.03v.6h.78c0-.09,0-.17-.09-.17v-.17c0-.09-.09-.09-.09-.26h-.6ZM70.51,43v.6h.78c0-.09,0-.17-.09-.17v-.17c0-.09-.09-.09-.09-.26h-.6ZM71.11,23.61v-.52h-.34v.52h.34ZM71.37,24.73h-.6v.43c0,.43.43.52.6.52.17-.09.34-.43.34-.6l-.34-.34ZM71.11,20.34c.17,0,.43-.09.6-.26-.17-.34-.52-.52-.78-.52,0,0,0,.6.17.78ZM71.8,34.39l.34-.34c-.17-.26-.52-.52-.69-.52-.17.17-.26.52-.26.78h.17l.26.09h.17ZM71.37,29.82v.43h.52v-.43h-.52ZM71.54,41.8v.43h.52v-.43h-.52ZM71.8,46.71l.86-.17c-.17-.34-.52-.6-.78-.6-.09.17-.09.34-.09.43v.34ZM73.09,35.68l.86-.17c-.17-.34-.52-.6-.78-.6-.09.17-.09.34-.09.43v.34ZM76.8,6.81l-.17-.09.09-.17h.17l-.09.26ZM77.49,7.33l.09.43c.17,0,.52.09.69,0,0-.26-.09-.52-.17-.6l-.6.17ZM81.88,2.58l.52-.69-.86-.09c0,.43.09.69.09.78h.26ZM82.66,4.05h.95c.17,0,.17-.17.26-.26-.17-.09-.34-.26-.34-.43,0-.26.09-.26.17-.34-.6.26-.86,0-1.21.78l.17.26ZM83.35,6.64v-.34c-.09-.34-.26-.43-.52-.43s-.34.35-.34.43c.26.34.6.34.86.34ZM85.07,12.75c0-.26-.43-.34-.95-.34-.26,0-1.03-.09-1.29.17.34.17,1.03.69,1.21.69s1.03-.09,1.03-.52ZM83,10.6c.26.09.26.34.17.43l-.17-.09v-.34ZM85.07,15.6v-.43c-.09-.17-.34-.26-.52-.43-.17.52-.6.86-1.12.86,0,0,.26.69.6.69.26,0,.43-.43.52-.52l.52-.17ZM83.69,10h.43c.09-.09.17-.17.17-.43s-.17-.34-.26-.34c-.26.17-.52.17-.52.52,0,.26,0,.17.17.26ZM84.72,14.39v-.43c0-.26-.17-.43-.34-.43-.17.09-.26.17-.34.17v.43c.17.09.43.35.52.52l.17-.26ZM84.98,19.13c.09-.09.26-.17.34-.17,0-.17-.17-.43-.34-.52-.17.09-.43.34-.43.43l.43.26ZM85.16,34.21c-.09.17-.43.17-.43.17,0-.09-.09-.09,0-.17h.43ZM86.45,10.69l.26-.09h.17c-.09-.43-.6-.43-.6-.86-.34-.17-.17-.6-.34-.6-.6,0-.6.26-.6.43,0,.34.34,1.12,1.12,1.12ZM85.41,8.19v.43c0,.26.17.26.26.26.09-.09.09-.6.09-.69h-.34ZM86.02,45.5l.43.09c.09-.09.17-.26.17-.34-.17,0-.43,0-.52-.09l-.09.35ZM86.28,12.24c-.09.09-.17.17-.17.34,0,.26.26.26.26.17.09-.26.09-.43-.09-.52ZM86.19,16.55c.17,0,.34-.26.34-.35-.09-.09-.26-.17-.34-.17-.09.17-.09.43,0,.52ZM86.97,14.13l-.6.26.6.43c.09-.09.17-.34.17-.43l-.17-.26ZM86.88,5.34h.34c.09-.17.26-.34.26-.6,0-.17-.26-.43-.43-.52-.26.26-.6.34-.6.6s.26.52.43.52ZM86.45,42.14l.69.09v-.26l-.34-.52c.17-.34.26-.69.26-1.03l-.52.09c.09.6-.09.43-.09.95v.69ZM89.12,34.64c-.09-.09-.26-.17-.52-.17s-.52.09-.78.78c.17.17.34.26.52.26.26,0,.43-.09.78-.26v-.6ZM89.03,39.56c0-.17-.26-.43,0-1.46h-.34c-.17.09-.34.43-.43.52.09.52.17.86.17,1.03l.6-.09ZM88.26,48.17v1.12c.09.17.26.26.34.26.17,0,.43-.17.52-.34,0-.17-.09-.43-.09-.86l-.78-.17ZM88.78,36.63v-.52h-.17v.52h.17ZM89.64,44.81l.52-.17v-.69l-.52-.69v.34l-.09.43.09.78Z"/>
      <path class="cls-1" d="M121.87,55.67c1.72,0,1.03,1.64,1.03,2.5,0,.26.09,1.21.09,1.55,0,1.03.26,1.55.26,1.98,0,2.16,0,2.59-1.21,2.59l-9.74-.09h-.78l-1.12-.09h-.78c-3.27,0-8.62.26-8.88.26-1.47,0-1.38-1.38-1.38-1.81,0-.6.26-2.41.26-4.48,0-.26-.09-1.29-.17-1.64-.09-.69.09-2.15.09-2.41,0-2.67-.26-4.05-.17-10.6,0-1.81-.09-4.14-.09-6.21,0-.43-.09-1.29-.09-1.98,0-.09-.09,2.33,0-21.46v-1.04c0-1.12,0-2.41-.34-3.62V3.02c0-1.46.43-1.55,1.72-1.55l15.25-.17c.26,0,1.21.17,1.55.17h.34l.86-.17h.52l.43.09h.43l.52-.09c.86,0,1.03.26,1.03,1.21l-.09,6.81c0,.86-.78.95-1.64.69h-1.81c-.34,0-.69.09-.95.09h-.17l-.52-.09h-.17c-.34,0-.6.09-.86.09-.52,0-3.19-.34-4.91-.09-.17.09-.69-.09-.86-.09-.34,0-.6.09-.69,2.5,0,.52.09,1.29.09,1.55v3.88c0,.26.17,3.1,0,3.88.17,3.96,0,3.71,0,4.14,0,.52.52.43.78.43.52,0,1.46-.17,1.72-.17,1.38-.09,3.96-.09,4.22-.09.17,0,.95-.09,1.55.09.43.09.6.43.6.86,0,1.12.26,2.58.26,2.84v5.69c0,.69-.26.52-.78.52-.26-.09-.6-.09-.78-.09-.26,0-1.03.09-1.38.09h-.17l-.43-.09h-.17c-.34,0-3.27,0-4.83-.17-.17.17-.26.09-.34.26-.09,2.15,0,6.46,0,6.81v9.39c0,.26.09,1.03-.09,1.55,0,.09-.09.26-.09.52,0,.69-.09,1.55.78,1.55l12.07-.17ZM101.79,60.58h.34v.17h-.34v-.17ZM102.65,54.38c-.09,0-.26.09-.43.26l.09.43c.43,0,.52-.26.6-.43l-.26-.26ZM103.26,50.07c0-.17.17-.34.17-.43-.17-.09-.34-.17-.43-.09-.26.09-.26.26-.26.34l.52.17ZM103.26,28.53v-.17h.34v.17h-.34ZM103.51,39.64c.26,0,.43-.34.6-.43-.17-.09-.43-.26-.6-.26-.09.09-.26.26-.26.43l.26.26ZM103.51,12.67l.6.26c0-.52.17-1.12.17-1.29v-.17l-.86-.09c0,.26.09.52.17.78.17,0,.26,0,.43.26-.34.17-.34.09-.52.09v.17ZM103.86,55.85c-.17,0-.43.34-.43.43.09.09.34.17.43.17,0-.17.09-.43,0-.6ZM104.12,24.82h-.6v.43c.17.09.43.09.6,0v-.43ZM103.69,60.84v.69l.52-.69h-.52ZM104.72,13.62l-.6-.26c-.09.26-.17.52-.17.69s.43.6.6.78c0,0,.09-.17.17-.17,0-.17-.26-.34-.43-.52.09-.09.26-.26.43-.26v-.26ZM104.38,43.35c-.09,0-.43.26-.43.43.17.09.52.09.6,0l-.17-.43ZM104.46,15.77h.26v-.69c-.09,0-.26-.09-.6-.09l-.09.09v.43l.43.26ZM104.03,22.06v-.43h.17v.43h-.17ZM104.03,23.18v-.34h.17v.34h-.17ZM104.46,52.66c-.17,0-.34.09-.43.09v.52c.09,0,.43.09.52,0l-.09-.6ZM104.55,8.79c-.09.86-.26,1.12-.26,1.98.09,0,.26.09.34.17l.17-.17c.09-.09-.17-.17-.34-.34.17-.34.69-.69.69-.95,0-.17-.17-.43-.26-.69h-.34ZM104.63,12.5h-.34c0,.09.26.26.34.43v-.43ZM104.38,54.81l.43.09-.09.17-.34-.09v-.17ZM104.81,40.85c.09.09.34.17.43,0,0-.09-.17-.17-.26-.26-.17.09-.17.26-.17.26ZM105.58,46.02l.17-.52c-.17-.17-.17-.35-.17-.35h-.43c-.17.26-.34.6-.34.69l.78.17ZM104.89,12.41l.52-.09-.17-.17c.09-.17.26-.26.43-.26v-1.46c-.09.26-.17.09-.17.43-.09.17-.43.26-.6.43v1.12ZM104.89,13.44l.86.09c0-.34-.09-.43-.34-.78l-.52.09v.6ZM105.24,48.26c0,.09-.09.26-.17.34l.95.17c.09-.09.17-.34.17-.43l-.95-.09ZM106.44,43.18c-.26-.26-.34-.43-.69-.43-.26,0-.34.26-.43.43-.17.43-.17,1.03-.17,1.29.26.26.52.52.78.52.34,0,.34-.17.52-.26v-1.55ZM105.41,50.07h.43c-.17-.34.09-.86-.09-.95-.09.17-.34.26-.34.52v.43ZM106.62,38.18c-.09-.09-.34-.26-.43-.43h-.43c-.09.26-.26.6-.26.69.34-.09.78,0,1.12-.26ZM105.58,9.57c.09,0,.26.09.34.17.09-.26,0-.69.09-1.03.09-.17.34-.17.34-.43s-.17-.35-.17-.35c-.52.26,0,.95-.6,1.29v.34ZM105.75,47.83c.09,0,.43-.17.52-.26-.17-.17-.52-.26-.69-.26l.17.52ZM106.44,41.62l.78-.17c-.09-.52.17-1.21.43-1.55-.17,0-.34-.17-.69-.17-.26,0-.78.43-1.21.6.34.17.69.26.78.52-.09.26-.17.52-.09.78ZM105.93,7.33c.17-.17.26-.34.26-.52,0-.26,0-.17-.26-.43v.95ZM108.86,42.23h-.43c-.26.09-.17.43-.43.52,0-.35,0-.6-.26-.78h-.52c.09.26.34.43.43.6-.34.26-.78.52-1.03.86.26.09.69.26.95.26s.78-.34,1.29-.52v-.95ZM107.05,46.71c.34-.26.86-.26,1.21-.34,0-.17-.26-.34-.34-.52-.26.17-.52.17-.78.17-.34,0-.34.17-.52.26l.43.43ZM106.7,51.71v.43h.52v-.43h-.52ZM107.56,21.89h.09c.09-.09.09-.43,0-.6-.09,0-.34.34-.34.43l.26.17ZM107.48,23.61l.43.09-.09.17-.34-.09v-.17ZM107.82,29.99c-.17.09-.26.26-.26.43,0,.34.34.6.69.69.09-.09.34-.17.34-.17v-.78c-.17-.09-.52-.26-.69-.26l-.09.09ZM107.56,49.47v.43c.34-.09.43-.26.43-.43h-.43ZM107.65,45.16c.17.09.34.17.52.17,0-.26-.17-.52-.34-.6l-.17.43ZM108.08,43.95l-.17.43h.52c.17-.09.17-.34.17-.43h-.52ZM108.77,28.61v-.6h-.43v.6h.43ZM110.15,34.21h.17v-.6c-.17,0-.43,0-.6-.17l-.26.17c-.09,0-.17.09-.26.17l.34.43c.17.09.34.09.43.09l.17-.09ZM109.29,30.77l.17-.09v.09l.09.09-.26-.09ZM109.63,30.85l.09-.09v.09h-.09ZM110.49,33.09c.43-.26.43-.52,0-.78v.78ZM112.3,3.71c-.34.17-.6.43-.6.78.17.09.34,0,.43,0q.26-.09.43-.09l-.26-.69ZM111.87,57.4v.26h.52v-.26h-.52ZM112.3,62.65v-.09l.26-.09c0-.17-.34-.34-.43-.34l.17.52ZM112.65,7.58l-.26.17.26-.17ZM113.08,3.62h.95c.17,0,.26,0,.26-.09l.26-.26c-.34-.17-.43-.26-.43-.43v-.17l.43-.52c-.52.26-.69.26-.78.34h-.17c-.43.09-.6.43-.78.86l.26.26ZM113.94,5.86q0-.09.09-.17c-.26-.26-.43-.43-.69-.43-.34,0-.52.34-.52.6.17.17.34.26.52.35l.17.09q.09,0,.17.09c.17-.17.17-.26.17-.34l.09-.17ZM113.42,34.82l-.17.43v.17h.69c.17-.17.09-.52.09-.78h-.6v.17ZM113.42,32.15l.43.43c.26-.17.26-.6.09-.78-.17,0-.17.09-.26.09l-.26.26ZM114.2,34.13s0-.09-.09-.09h.17l-.09.09ZM114.98,6.46l-.09.09c-.09.09-.17.26-.17.43s0,.26.09.34h.6c.17-.09.26-.26.26-.52s-.26-.43-.43-.43q-.09,0-.17.09h-.09ZM115.23,62.22v-.43h-.17l-.09.43h.26ZM115.32,30.77l.52.09-.17.09v-.09l-.43-.09.09-.09v.09ZM115.67,5.43h.69c0-.17-.17-.43-.43-.69l-.26.69ZM116.01,32.4l.17-.69h-.34l-.17.52.34.17ZM116.35,58.43l.34-.17c0-.09-.17-.17-.26-.34l-.09.52ZM117.04,6.55c.26,0,.52.17.86,0,0-.34-.17-.69-.34-.78-.17.09-.43.09-.69.26l.17.52ZM117.56,3.62h-.09v-.26h.26l-.09.34-.09-.09ZM118.25,61.53c0,.26.26.6.43.6.09-.17.26-.43.26-.6h-.69ZM119.54,5c-.34.17-.69.43-.69.69l1.03-.17c0-.17-.09-.26-.17-.35l-.17-.17ZM119.89,57.4h-.17v.34h.17v-.34Z"/>
      <path class="cls-1" d="M148.16,52.4c-.17-.95,0-1.04,0-2.5,0-.26-.34-.6-.17-1.12,0-.09-.09-.6.17-.86-.34-.78-.6-2.24-.6-2.58,0-1.55.34-1.98.26-3.27-.34-.6-.09-.95-.17-1.55v-2.93c0-.26-.09-.86-.17-1.29,0-.26-.09-.69-.09-1.03,0-.52.34-1.29.17-2.24-.09-.95.09-1.9.09-2.84.09-1.03,0-2.15-.17-3.27.17-.95.17-2.5.09-3.79l.17-.26c.09,0,.09-.09.09-.09-.34-1.38-.17-.43-.17-5.52,0,0,.09,0,.17-.09-.17-1.9-.17-3.62,0-5.34.09-.09.17-.86-.09-.86.09-.17.26-.52.17-.69-.17-.34-.26-1.03-.26-1.29V2.33c0-1.12,2.84-1.12,3.62-1.12q.09,0,.17.09l.34.26q.09.09.17.09c.26,0,.43-.26.52-.34.09.09.17.34.43.34.34,0,.78-.43,1.03-.43h.34l1.12.17h1.03c.86,0,2.5-.17,2.67-.17h.17l.26.17h5.6c.26,0,1.81.34,2.15.34h.17l.52-.17h.34l.52.17h.43l.52-.09c.34,0,.95.09.95.6v7.15c0,1.12-.69,1.12-1.12,1.12-.78,0-1.55,0-2.15.09-.43,0-1.29-.17-1.9-.17h-3.53c-.52,0-1.38.34-1.64.34s-1.29-.26-1.46-.26c-.26,0-.6.09-.95.43l.34,12.93c0,.17.09,1.72.09,2.5.26.26.52.43.78.43s.17-.17.52-.17h.17l.26.17h.34l.26-.26h.17c.86-.17,2.15-.17,2.41-.17.17,0,1.55.17,2.84.26.86.17,1.46-.09,1.46.95,0,.78-.09,1.98.17,2.33v6.03c0,1.03-.69.78-1.81.95h-.78c-.17,0-.43-.17-.69-.17-1.64-.17-4.83-.17-5.17-.17s-.6.17-.6.52l.09,4.65-.17,1.12.26,1.98.09,4.22-.09,3.96.34.78-.09,1.55.34,3.96v3.62c0,2.33-1.29.86-2.84,1.38-.26.09-.86-.34-1.03-.09-.17,0-.86.17-1.12.17-.34,0-1.9-.17-2.15-.17h-.26l-.86.09h-.26c-.78,0-1.03.43-1.03,0-1.55.26-1.81-.26-1.9-2.84.69-.43-.26-.95.09-1.81,0-.43-.09-.86-.09-1.38,0-.09.34-.26.34-.43,0-1.12-.43-2.07-.26-5v-.43ZM149.97,21.03v-.6c-.26,0-.6.34-.6.6h.6ZM149.71,31.46c.09.17.26.34,0,.52-.09-.17-.09-.34,0-.52ZM149.79,32.4c-.17.17-.09.34.09.52.17-.17,0-.34-.09-.52ZM149.97,25.51l.52.52c.34-.17.78-.52.78-.78,0-.17-.17-.34-.43-.43-.26-.09-.43-.09-.6-.26l-.26.95ZM150.91,44.21l.34-.34c-.17-.26-.52-.52-.69-.52-.17.17-.26.52-.26.78h.17l.26.09h.17ZM150.83,41.54c.17.17.52.26.86.26.26-.09.52-.09.78-.09-.17-.43-.52-.78-.86-.95l-.78.78ZM151.34,43.61h.86c0-.26-.34-.69-.6-.86l-.26.86ZM151.52,27.66v.6h.78c0-.09,0-.17-.09-.17v-.17c0-.09-.09-.09-.09-.26h-.6ZM151.69,39.38v.6h.78c0-.09,0-.17-.09-.17v-.17c0-.09-.09-.09-.09-.26h-.6ZM152.29,20.42v-.52h-.34v.52h.34ZM152.55,21.54h-.6v.43c0,.43.43.52.6.52.17-.09.34-.43.34-.6l-.34-.34ZM152.29,17.24c.17,0,.43-.09.6-.26-.17-.34-.52-.52-.78-.52,0,0,0,.6.17.78ZM152.98,31.03l.34-.35c-.17-.26-.52-.52-.69-.52-.17.17-.26.52-.26.78h.17l.26.09h.17ZM152.55,26.54v.43h.52v-.43h-.52ZM153.76,36.11c0-.09.09-.17.09-.17q0-.09.26-.34l-1.21-.17-.26.26v.52c.17.17.52.35.69.35l.43-.43ZM152.72,38.26v.43h.52v-.43h-.52ZM152.98,43.09l.86-.17c-.17-.34-.52-.6-.78-.6-.09.17-.09.34-.09.43v.34ZM153.5,19.13c.43,0,.69-.34.69-.6-.17-.17-.6-.17-.95-.17l.26.78ZM153.41,26.89h.86c0-.43-.17-.78-.69-1.21l-.17,1.21ZM154.1,12.93c-.17,0-.26,0-.34.09-.09.09-.09.17-.17.26.17.17.43.26.43.26.17-.17.09-.43.09-.6ZM154.27,32.23l.86-.17c-.17-.34-.52-.6-.78-.6-.09.17-.09.34-.09.43v.34ZM155.31,34.9v.86l.78-.26v-.34l-.09-.09v-.17h-.69ZM157.38,51.45c-.26-.17-.34-.34-.34-.43-.09-.17-.09-.26-.26-.43-.95,0-1.21.09-1.47.09.09,1.04.78,1.04,1.12,1.04.26,0,.52,0,.95-.26ZM157.12,8.7c.26-.26.17-.78,0-.78-.09,0-.09-.34-.09-.34l-.43.26c-.09.09.17.26-.26.26.34.34.43.34.43.34.09,0,.17.09.34.26ZM156.86,62.05v.43c.26.09.52.17.6.26-.17.09-.09.34,0,.52.26,0,.43-.34.43-.43-.43-.26-.17-.43-.52-.78h-.52ZM157.64,7.93v.78h.6c.17-.17.17-.34.17-.6l-.78-.17Z"/>
      <path class="cls-1" d="M199.69,55.67c1.72,0,1.03,1.64,1.03,2.5,0,.26.09,1.21.09,1.55,0,1.03.26,1.55.26,1.98,0,2.16,0,2.59-1.21,2.59l-9.74-.09h-.78l-1.12-.09h-.78c-3.27,0-8.62.26-8.88.26-1.47,0-1.38-1.38-1.38-1.81,0-.6.26-2.41.26-4.48,0-.26-.09-1.29-.17-1.64-.09-.69.09-2.15.09-2.41,0-2.67-.26-4.05-.17-10.6,0-1.81-.09-4.14-.09-6.21,0-.43-.09-1.29-.09-1.98,0-.09-.09,2.33,0-21.46v-1.04c0-1.12,0-2.41-.34-3.62V3.02c0-1.46.43-1.55,1.72-1.55l15.25-.17c.26,0,1.21.17,1.55.17h.34l.86-.17h.52l.43.09h.43l.52-.09c.86,0,1.03.26,1.03,1.21l-.09,6.81c0,.86-.78.95-1.64.69h-1.81c-.34,0-.69.09-.95.09h-.17l-.52-.09h-.17c-.34,0-.6.09-.86.09-.52,0-3.19-.34-4.91-.09-.17.09-.69-.09-.86-.09-.34,0-.6.09-.69,2.5,0,.52.09,1.29.09,1.55v3.88c0,.26.17,3.1,0,3.88.17,3.96,0,3.71,0,4.14,0,.52.52.43.78.43.52,0,1.46-.17,1.72-.17,1.38-.09,3.96-.09,4.22-.09.17,0,.95-.09,1.55.09.43.09.6.43.6.86,0,1.12.26,2.58.26,2.84v5.69c0,.69-.26.52-.78.52-.26-.09-.6-.09-.78-.09-.26,0-1.03.09-1.38.09h-.17l-.43-.09h-.17c-.34,0-3.27,0-4.83-.17-.17.17-.26.09-.34.26-.09,2.15,0,6.46,0,6.81v9.39c0,.26.09,1.03-.09,1.55,0,.09-.09.26-.09.52,0,.69-.09,1.55.78,1.55l12.07-.17ZM179.61,60.58h.34v.17h-.34v-.17ZM180.47,54.38c-.09,0-.26.09-.43.26l.09.43c.43,0,.52-.26.6-.43l-.26-.26ZM181.08,50.07c0-.17.17-.34.17-.43-.17-.09-.34-.17-.43-.09-.26.09-.26.26-.26.34l.52.17ZM181.08,28.53v-.17h.34v.17h-.34ZM181.34,39.64c.26,0,.43-.34.6-.43-.17-.09-.43-.26-.6-.26-.09.09-.26.26-.26.43l.26.26ZM181.34,12.67l.6.26c0-.52.17-1.12.17-1.29v-.17l-.86-.09c0,.26.09.52.17.78.17,0,.26,0,.43.26-.34.17-.34.09-.52.09v.17ZM181.68,55.85c-.17,0-.43.34-.43.43.09.09.34.17.43.17,0-.17.09-.43,0-.6ZM181.94,24.82h-.6v.43c.17.09.43.09.6,0v-.43ZM181.51,60.84v.69l.52-.69h-.52ZM182.54,13.62l-.6-.26c-.09.26-.17.52-.17.69s.43.6.6.78c0,0,.09-.17.17-.17,0-.17-.26-.34-.43-.52.09-.09.26-.26.43-.26v-.26ZM182.2,43.35c-.09,0-.43.26-.43.43.17.09.52.09.6,0l-.17-.43ZM182.28,15.77h.26v-.69c-.09,0-.26-.09-.6-.09l-.09.09v.43l.43.26ZM181.85,22.06v-.43h.17v.43h-.17ZM181.85,23.18v-.34h.17v.34h-.17ZM182.28,52.66c-.17,0-.34.09-.43.09v.52c.09,0,.43.09.52,0l-.09-.6ZM182.37,8.79c-.09.86-.26,1.12-.26,1.98.09,0,.26.09.34.17l.17-.17c.09-.09-.17-.17-.34-.34.17-.34.69-.69.69-.95,0-.17-.17-.43-.26-.69h-.34ZM182.46,12.5h-.34c0,.09.26.26.34.43v-.43ZM182.2,54.81l.43.09-.09.17-.34-.09v-.17ZM182.63,40.85c.09.09.34.17.43,0,0-.09-.17-.17-.26-.26-.17.09-.17.26-.17.26ZM183.4,46.02l.17-.52c-.17-.17-.17-.35-.17-.35h-.43c-.17.26-.34.6-.34.69l.78.17ZM182.72,12.41l.52-.09-.17-.17c.09-.17.26-.26.43-.26v-1.46c-.09.26-.17.09-.17.43-.09.17-.43.26-.6.43v1.12ZM182.72,13.44l.86.09c0-.34-.09-.43-.34-.78l-.52.09v.6ZM183.06,48.26c0,.09-.09.26-.17.34l.95.17c.09-.09.17-.34.17-.43l-.95-.09ZM184.27,43.18c-.26-.26-.34-.43-.69-.43-.26,0-.34.26-.43.43-.17.43-.17,1.03-.17,1.29.26.26.52.52.78.52.34,0,.34-.17.52-.26v-1.55ZM183.23,50.07h.43c-.17-.34.09-.86-.09-.95-.09.17-.34.26-.34.52v.43ZM184.44,38.18c-.09-.09-.34-.26-.43-.43h-.43c-.09.26-.26.6-.26.69.34-.09.78,0,1.12-.26ZM183.4,9.57c.09,0,.26.09.34.17.09-.26,0-.69.09-1.03.09-.17.34-.17.34-.43s-.17-.35-.17-.35c-.52.26,0,.95-.6,1.29v.34ZM183.58,47.83c.09,0,.43-.17.52-.26-.17-.17-.52-.26-.69-.26l.17.52ZM184.27,41.62l.78-.17c-.09-.52.17-1.21.43-1.55-.17,0-.34-.17-.69-.17-.26,0-.78.43-1.21.6.34.17.69.26.78.52-.09.26-.17.52-.09.78ZM183.75,7.33c.17-.17.26-.34.26-.52,0-.26,0-.17-.26-.43v.95ZM186.68,42.23h-.43c-.26.09-.17.43-.43.52,0-.35,0-.6-.26-.78h-.52c.09.26.34.43.43.6-.34.26-.78.52-1.03.86.26.09.69.26.95.26s.78-.34,1.29-.52v-.95ZM184.87,46.71c.34-.26.86-.26,1.21-.34,0-.17-.26-.34-.34-.52-.26.17-.52.17-.78.17-.34,0-.34.17-.52.26l.43.43ZM184.52,51.71v.43h.52v-.43h-.52ZM185.39,21.89h.09c.09-.09.09-.43,0-.6-.09,0-.34.34-.34.43l.26.17ZM185.3,23.61l.43.09-.09.17-.34-.09v-.17ZM185.64,29.99c-.17.09-.26.26-.26.43,0,.34.34.6.69.69.09-.09.34-.17.34-.17v-.78c-.17-.09-.52-.26-.69-.26l-.09.09ZM185.39,49.47v.43c.34-.09.43-.26.43-.43h-.43ZM185.47,45.16c.17.09.34.17.52.17,0-.26-.17-.52-.34-.6l-.17.43ZM185.9,43.95l-.17.43h.52c.17-.09.17-.34.17-.43h-.52ZM186.59,28.61v-.6h-.43v.6h.43ZM187.97,34.21h.17v-.6c-.17,0-.43,0-.6-.17l-.26.17c-.09,0-.17.09-.26.17l.34.43c.17.09.34.09.43.09l.17-.09ZM187.11,30.77l.17-.09v.09l.09.09-.26-.09ZM187.45,30.85l.09-.09v.09h-.09ZM188.32,33.09c.43-.26.43-.52,0-.78v.78ZM190.13,3.71c-.34.17-.6.43-.6.78.17.09.34,0,.43,0q.26-.09.43-.09l-.26-.69ZM189.7,57.4v.26h.52v-.26h-.52ZM190.13,62.65v-.09l.26-.09c0-.17-.34-.34-.43-.34l.17.52ZM190.47,7.58l-.26.17.26-.17ZM190.9,3.62h.95c.17,0,.26,0,.26-.09l.26-.26c-.34-.17-.43-.26-.43-.43v-.17l.43-.52c-.52.26-.69.26-.78.34h-.17c-.43.09-.6.43-.78.86l.26.26ZM191.76,5.86q0-.09.09-.17c-.26-.26-.43-.43-.69-.43-.34,0-.52.34-.52.6.17.17.34.26.52.35l.17.09q.09,0,.17.09c.17-.17.17-.26.17-.34l.09-.17ZM191.25,34.82l-.17.43v.17h.69c.17-.17.09-.52.09-.78h-.6v.17ZM191.25,32.15l.43.43c.26-.17.26-.6.09-.78-.17,0-.17.09-.26.09l-.26.26ZM192.02,34.13s0-.09-.09-.09h.17l-.09.09ZM192.8,6.46l-.09.09c-.09.09-.17.26-.17.43s0,.26.09.34h.6c.17-.09.26-.26.26-.52s-.26-.43-.43-.43q-.09,0-.17.09h-.09ZM193.06,62.22v-.43h-.17l-.09.43h.26ZM193.14,30.77l.52.09-.17.09v-.09l-.43-.09.09-.09v.09ZM193.49,5.43h.69c0-.17-.17-.43-.43-.69l-.26.69ZM193.83,32.4l.17-.69h-.34l-.17.52.34.17ZM194.18,58.43l.34-.17c0-.09-.17-.17-.26-.34l-.09.52ZM194.87,6.55c.26,0,.52.17.86,0,0-.34-.17-.69-.34-.78-.17.09-.43.09-.69.26l.17.52ZM195.38,3.62h-.09v-.26h.26l-.09.34-.09-.09ZM196.07,61.53c0,.26.26.6.43.6.09-.17.26-.43.26-.6h-.69ZM197.37,5c-.34.17-.69.43-.69.69l1.03-.17c0-.17-.09-.26-.17-.35l-.17-.17ZM197.71,57.4h-.17v.34h.17v-.34Z"/>
      <path class="cls-1" d="M222.88,15.94l-.26-.26v-.17c-.17-.6-.09-1.64-.26-2.33-.17-.95-.17-1.98-.69-2.76-.43-.69-1.9-1.9-2.93-1.9-.26,0-.78.17-1.12.52-2.07,1.72-2.07,3.27-2.07,5,0,3.62,3.53,9.57,4.91,10.69,3.27,4.74,8.27,11.46,11.03,17.24.26,1.38,1.21,4.31,1.03,5-.09.43.34,1.03.09,1.9.26,3.19-.86,7.84-3.19,11.12-.17.26-.69.52-.95.69-1.38,2.76-6.38,4.05-9.22,4.05-.26,0-1.81-.43-2.76-.43-3.71,0-8.19-3.36-9.05-7.07-.09-.09-.34-.35-.52-.43,0-.34,0-.86-.09-1.12-.09-.26-.34-.34-.52-.6,0-1.72-.34-2.33-.43-3.53-.09-1.12.26-1.29.17-2.07-.09-1.03-.34-2.93-.34-3.19,0-1.03.69-1.21,1.64-1.21h2.24c.34,0,.86-.34,1.38-.34,1.38-.09,2.24-.26,2.84-.26.86,0,.95.35.95,1.9,0,.26.43,1.55.52,2.67.09.6.09,1.9.26,2.84,0,.34.17.86.34,1.12.17.34.52.95.78,1.55,1.03.78,1.21.69,2.07.69,3.71,0,4.4-3.71,4.4-5.77,0-.26,0-.52-.09-.6-.17-.95-.6-3.1-1.12-4.22,0-.09-.34-.43-.6-.86-.09-1.55-1.72-3.45-2.93-5.17,0-.26,0-.69-.26-.95-1.12-.95-2.5-3.45-3.36-4.05-.69-2.15-2.33-3.45-3.53-5.26-.52-.69-1.03-1.98-1.98-2.84-.26-.86-1.29-2.5-1.64-3.36-.17-.43-.34-1.72-.52-2.24-.17-.26-.6-.78-.69-1.29,0-.35.17-.86.09-1.12-.09-.17-.43-.6-.52-.95s.09-.26,0-2.93c1.03-1.38-.26-3.1.95-4.65l1.03-2.59c.17-.34,1.03-.69.86-1.29.69-.43,1.38-1.38,2.07-1.9.6-.43.52-.52,1.72-1.21,1.55-.78,2.76-1.29,4.48-1.29.86,0,2.07-.17,3.62-.17.6,0,2.84.17,3.36.52.69.35,1.81.69,2.67,1.12.09.69,1.29.86,1.81,1.46.78,1.12.69,1.38,1.12,1.72.34.26.34.52.6,1.12.6,1.64,1.55,4.57,1.47,5v5.34c0,.95-.69,1.29-1.03,1.29-.6,0-.6-.09-1.81-.09h-2.07c-.26,0-.86.26-1.21.26h-2.07c-.34,0-.95-.17-.95-.95,0-.52.26-.86.26-1.21v-.17ZM209.95,53.78v.34h.52v-.34h-.52ZM211.67,57.74l.26-.52-.34-.09-.26.43.34.17ZM213.74,61.02v.35h.6v-.35h-.6ZM219.43,30.85v.43h.78v-.43h-.78ZM221.41,35.68v.86h.17l.17.09c.09,0,.17,0,.26-.17,0-.17-.09-.26-.17-.34l-.43-.43ZM221.93,59.29v-.6h-.34v.6h.34ZM222.36,29.65c-.17.6,0,1.03.09,1.38h.6c0-.26,0-.35-.09-.52,0-.26.09-.6-.09-.86h-.52ZM223.05,57.74c0-.17,0-.52-.26-.78-.09.09-.09.17-.09.17l-.09.09c-.09.09-.09.17-.26.26.26.26.52.26.69.26ZM223.82,61.1h-.69c-.09,0-.17.09-.17.26,0,.09.09.26.17.34l.69-.6ZM223.39,32.75c.17-.26.34-.34.6-.52,0-.09.09-.09.26-.26-.34,0-.52-.09-.69-.09s-.34,0-.52.09c0,.17.17.52.34.78ZM223.22,59.12c.17,0,.34.09.34.17.34,0,.6-.35.6-.6-.17-.09-.52-.26-.78-.26l-.17.69ZM225.2,10.6c-.26,0-.43.26-.43.43.09.09.26.09.43.09.09-.17,0-.43,0-.52ZM225.2,39.3v.43l.78.17v-.43l-.78-.17ZM225.63,55.85l.17-.26c-.09-.09-.09-.17-.09-.26-.09-.09-.09-.26-.26-.34-.17.26-.17.69-.17.95.17,0,.26-.09.34-.09ZM227.53,51.71h-.86c-.17.17-.52.34-.69.43-.26.17-.52.43-.52.6v.35c.17.17.43.17.69.17h.34c.26-.17,1.03-.78,1.03-1.03v-.52ZM225.72,50.42q0,.09.09.09v.09c0,.09.09.17.17.26.34.09.69.17,1.12.26h.09l.17.09c.17.09.26.17.43.17h.26l.17-.09h.17v-.26c.09-.09.09-.17.09-.35,0-.26-.34-.69-.69-1.03-.09.09-.17.17-.17.26l-.17.17c-.09.09-.17.17-.26.17s-.26-.09-.52-.17c-.26-.09-.52-.17-.69-.17-.34,0-.26.17-.26.17v.34ZM226.06,42.4l.26-.52-.34-.09-.26.43.34.17ZM226.32,37.92l.17-.09h.17c0-.26-.09-.34-.09-.43l-.26-.26c-.34.17-.52.52-.52.78h.52ZM226.84,46.11h.6c0-.17.09-.26.09-.34v-.09c.09,0,.09-.09.09-.17-.17-.09-.26-.17-.26-.26-.09-.09-.26-.17-.34-.17h-.34l-.17.78c.09.09.17.09.17.09l.17.17ZM227.01,53.17l-.34.34v.43c.26.09.69.09.95,0v-.52c0-.34-.17-.26-.26-.26h-.34ZM226.67,57.22c.43.26.86.43,1.03.43,0-.17,0-.26-.09-.34v-.34l-.95.26ZM227.01,6.29c.09,0,.26-.34.34-.43-.09,0-.26-.17-.26-.17-.09.17-.26.52-.09.6ZM228.31,46.8c-.26,0-.6,0-.78.09-.09.43.34.78.69.86l.69-.6-.09-.6c-.17,0-.26,0-.34.09l-.17.17ZM228.99,41.71l-.17.6c.09.26.34.52.69.52s.52-.34.52-.6c0-.17,0-.34-.09-.34l-.09-.09s-.09,0-.17-.09h-.69ZM229.86,54.12c.26-.09.43-.26.43-.6,0-.17-.43-.69-.69-.86-.34.09-.43.52-.43.78s.17.6.34.95l.34-.26ZM229.86,51.62v-.69h-.43v.69h.43ZM230.37,50.76v-.26c.09-.17.17-.26.17-.43h-.6c0,.26-.09.43-.26.69h.69ZM231.15,45.76c-.26-.17-.34-.17-.52-.26l-.17-.09h-.09c-.17.34-.09.6-.09.95.17,0,.78-.52.86-.6Z"/>
      <path class="cls-1" d="M256.66,60.41c0,.26,0,.52-.09,2.5,0,.78-.43,1.12-1.29,1.12-.6.09-1.03.17-1.29.17-.95,0-2.07-.09-2.76-.09-.95-.17-2.07.17-3.1.17-1.21,0-1.72-.6-1.72-1.81l-.26-38.09c0-1.55.26-4.39.26-4.65,0-.78-.17-1.9-.17-3.53,0-.6-.09-1.29-.09-2.33-.09-1.12.34-1.9.09-3.02-.09-.34-1.21-.43-2.5-.43h-4.83c-.26,0-.69.26-1.55.26-.6,0-1.03-.34-1.03-.78,0-.78,0-.95.09-1.29.17-2.24-.34-4.22.09-5.95,0-1.21,2.15-1.29,2.67-1.21.78-.17,1.38.09,1.81.09h.26l.6-.17h.26c.26,0,2.67.09,3.02.09h.26l.6-.09h.26l18.79.17c1.55.09,1.38,1.29,1.38,1.64v2.07l-.09.52c0,.52,0,1.64.17,2.07v1.64c.09.26.09.52.09.86,0,.52-.17.6-.69.6-3.27,0-2.5-.09-2.76-.09l-5.34.17c-.26,0-.6-.09-.95-.09-.26,0-.78-.26-.78.6-.09,1.9.09,4.14.09,6.64v.17l-.26.43v.17c0,.26.26,1.04.26,1.55,0,5.77.09,12.75.09,19.13v.17l-.09.52v.17c0,3.88.52,11.12.52,12.93v6.98ZM239.34,4.83v.34h.78v-.34h-.78ZM242.53,5.34v-.52l-.52-.52h-.52c-.17.34-.26.86-.17,1.21.34,0,.6.09.86.17l.34-.34ZM241.58,5.69v.52l1.12-.26-1.12-.26ZM241.92,7.76v.43h.52v-.43h-.52ZM245.97,5c-.26-.17-.43-.26-.43-.26-.69.09-2.24.6-2.67,1.03.34.17,2.07.43,2.41.26-.09-.52.34-.86.69-1.03ZM246.49,7.58v-.78h-.34l-.09-.09h-.17c-.34.43-.52.95.26,1.21l.34-.34ZM246.23,4.14v-.86h-.52v.86h.52ZM248.47,8.7c.34.09.69.09.86-.34v-.34c-.43-.17-.86-.26-1.21-.26s-.6.34-.69.69c.34,0,.69.17,1.03.26ZM248.9,49.47v-.6l-1.03.26,1.03.34ZM248.47,50.85l-.34.43c.17.17.52.34.69.34.09-.09.17-.09.17-.17.09-.09.17-.09.34-.26l-.86-.34ZM248.13,52.92v.34h.78v-.34h-.78ZM249.51,55.67c.09-.09.17-.17.17-.26l.09-.09q0-.09.17-.26c-.34,0-.43-.09-.6-.09-.17-.09-.34-.17-.69-.26,0,.26-.17.34-.17.43.09.09.09.17.17.17l.09.09c.17.09.26.17.26.26h.52ZM248.73,46.02l-.17.52c.17.17.52.35.78.35l.17-.86h-.78ZM248.64,43.87c.09.26.17.34.34.43l.26.34c.17.26.43.43.52.43.17,0,.26-.09.34-.09l.09-.09h.09v-.78c-.26-.17-.43-.17-.52-.26-.17-.09-.26-.17-.34-.43h-.52l-.09.09v.09c-.09,0-.09.09-.09.09l-.09.17ZM249.16,48.61s.09.69.26.78c.09,0,.17,0,.26-.17l.17-.09q0-.09.17-.26l-.86-.26ZM249.59,28.96l-.17-.09.17-.34.17.09-.17.35ZM249.51,59.12v.43h.78v-.43h-.78ZM250.54,38.95c-.17-.17-.43-.17-.6-.17l-.17.52s.09,0,.09.09h.09c.17.09.26.17.34.34l.17-.52q.09.17.17.26c0,.09.09.17.17.26l.6-.17c0-.34-.34-.6-.6-.6,0,.17-.09.17-.34.17l.09-.17ZM250.97,52.31v-.52l-.69-.17c0,.26-.17.34-.26.52l.95.17ZM252.26,51.11v-.26c.09-.09.09-.17.09-.26l-.78-.17c-.09.17-.09.26-.09.34h-.09l-.09-.09c-.09,0-.17-.09-.34-.09s-.34.17-.43.26c-.17.17-.17.26-.34.34.17.26.52.43.95.43.17-.09.26-.34.34-.52h.78ZM250.45,39.21q-.09,0-.17-.09h.17v.09ZM250.63,40.76h.69c-.26-.43-.6-.52-.95-.43.17.17.26.43.26.43ZM250.37,41.54v.34l.52-.26-.09-.34-.43.26ZM250.71,38.7h.09s0,.09.09.09h.69v-.6c.26,0,.52,0,.69-.17,0-.09,0-.17-.09-.26,0-.09-.09-.17-.09-.34-.09.09-.17.17-.34.17.09-.09.17-.09.34-.26v-.52l-1.12-.17c0,.43,0,.78.17.95h.6c-.52.17-.95.26-1.29.43v.52s.09,0,.09.09h.09l.09.09ZM250.97,43.52c.26,0,.43-.17.6-.34,0-.17-.17-.43-.43-.43-.09,0-.26.17-.52.43l.34.34ZM250.71,43.95v.52l1.55-.26-1.55-.26ZM250.89,4.31v.69c.17.17.26.17.34.17l.09-.09h.17c.09-.17.09-.34.09-.43v-.34h-.69ZM251.32,57.66c.52,0,1.21-.34,1.29-.86-.6-.17-1.12.09-1.38.43l.09.43ZM251.32,41.11l.34.34h.17l.09-.09h.17c.09,0,.17.26.26.34.09.09.09.17.26.26.17-.17.26-.43.26-.43-.09-.26-.26-.34-.34-.52l-.17-.09s0-.09-.09-.09v-.09l-.09-.09h-.52l-.34.43ZM251.32,49.29v.43h.43v-.43h-.43ZM252.18,35.25l.34-.34c-.17-.34-.52-.52-.69-.52-.17.09-.34.43-.34.69h.17l.34.17h.17ZM251.83,46.19c-.17.17-.34.26-.34.52,0,.43.26.43.26.43h.52c.17-.17.34-.52.34-.69-.17-.17-.52-.34-.69-.34l-.09.09ZM252.61,53.17l-.17-.78c-.34.17-.69.34-.95.69.17.26.78.09,1.12.09ZM251.92,21.37c.17-.35.34-.78.34-1.04-.26.17-.6.43-.6.6,0,.34.17.34.26.43ZM251.92,58.86c0,.09.09.17.09.34.17,0,.26.09.43.17l.17-1.29c-.17-.17-.52-.26-.69-.26-.09.26-.09.52,0,.69v.34ZM252.18,53.95v.34h.52v-.34h-.52ZM252.35,7.15c0,.26.17.52.34.69.17-.26.26-.6.26-.78-.17,0-.26,0-.34.09h-.26ZM252.7,50.85v.34h.52v-.34h-.52ZM253.38,56.97l.26-.52-.34-.09-.26.43.34.17ZM253.13,59.29c.26,0,.43.09.6.09l.26.09h.17c.43,0,.52-.43.52-.6-.52,0-1.03,0-1.38-.17l-.17.6ZM254.07,47.4v-.6c-.17-.17-.34-.17-.52-.17-.17.26-.34.6-.26.95.26.09.69,0,.78-.17ZM253.73,4.57v-.52h-.43v.52h.43ZM254.85,43.09h-.6c-.09.17-.26.43-.43.6-.09.17-.26.26-.52.43.69.34,1.21.52,1.81.43-.09-.26-.26-.26-.34-.34l-.09-.09c.17-.09.17-.26.17-.43v-.6ZM253.38,51.54v.78l.69-.17v-.34l-.09-.09v-.17h-.6ZM254.68,56.28v-.86c-.17,0-.34-.17-.52-.34-.09.17-.17.17-.34.26l-.17-.26-.17.17c-.09.09-.09.26-.09.43,0,.26.09.78.78.78.17,0,.34,0,.43-.09l.09-.09ZM253.47,36.37l.78-.17c-.09-.34-.43-.6-.69-.52-.09.09-.17.26-.09.34v.34ZM254.59,60.24c-.43,0-.86.6-1.03,1.03l.78.17c.43-.26.78-.69.95-1.21h-.69ZM254.16,54.98c.26-.17.26-.52,0-.69-.09.17-.34.17-.34.17,0,.17.09.26.17.34l.17.17ZM254.85,41.02c-.26,0-.43,0-.69.09v.78c.43,0,.95,0,1.38.17.17-.17.09-.69-.09-1.04h-.6ZM254.85,50.76l-.52.52q.09.09.17.09v.09c.09,0,.17.09.34.09.34,0,.69-.34.69-.6l-.69-.17ZM254.85,57.22c0,.34.09.52.09.69l.09.17v.09c.26.09.6.09.86-.09,0-.34-.17-.69-.34-.86h-.69ZM255.37,53.78v.09c.17,0,.26-.09.43-.17h.09l.09-.09c-.09-.34-.52-.6-.78-.52,0,.26,0,.43.09.52l.09.17Z"/>
    </g>
  </g>
</svg>