<?xml version="1.0" standalone="no"?>
<!DOCTYPE svg PUBLIC "-//W3C//DTD SVG 20010904//EN"
 "http://www.w3.org/TR/2001/REC-SVG-20010904/DTD/svg10.dtd">
<svg version="1.0" xmlns="http://www.w3.org/2000/svg"
 width="224.000000pt" height="224.000000pt" viewBox="0 0 224.000000 224.000000"
 preserveAspectRatio="xMidYMid meet">
<metadata>
Created by potrace 1.14, written by Peter Selinger 2001-2017
</metadata>
<g transform="translate(0.000000,224.000000) scale(0.100000,-0.100000)"
fill="#000000" stroke="none">
<path d="M505 2216 c-62 -22 -64 -25 -51 -82 6 -27 3 -34 -20 -49 -22 -14 -31
-15 -46 -6 -63 39 -57 39 -94 -4 -50 -59 -53 -81 -15 -113 30 -25 31 -29 21
-59 -11 -30 -15 -33 -55 -33 -45 0 -55 -10 -55 -56 0 -22 4 -24 48 -25 57 -1
116 2 120 6 2 2 6 18 8 37 13 84 83 176 163 211 58 25 152 29 211 8 89 -32
180 -152 180 -238 0 -25 1 -25 105 -25 25 0 50 1 55 1 15 1 12 71 -2 72 -7 1
-28 2 -47 2 -31 2 -36 6 -44 36 -7 28 -5 36 8 44 10 5 26 18 36 28 19 19 19
20 -18 74 -21 30 -45 55 -54 55 -9 0 -29 -10 -43 -21 l-28 -22 -26 21 c-15 11
-25 26 -24 34 18 69 16 77 -24 94 -22 9 -54 17 -73 18 -30 1 -35 -3 -46 -34
-10 -30 -17 -35 -48 -38 -34 -3 -36 -1 -48 37 -6 22 -17 42 -23 44 -6 3 -38
-5 -71 -17z"/>
<path d="M1465 2216 c-57 -20 -60 -23 -56 -51 8 -61 6 -69 -20 -84 -24 -13
-28 -13 -54 7 -15 12 -33 22 -40 22 -15 0 -85 -91 -85 -111 0 -7 14 -24 30
-38 26 -23 29 -30 22 -56 -8 -27 -13 -30 -57 -35 l-49 -5 -1 -39 0 -38 77 0
c43 0 81 3 86 5 4 3 9 20 10 37 6 77 77 171 159 211 57 28 152 32 212 10 92
-34 181 -146 181 -228 0 -32 1 -33 43 -34 76 -2 122 3 128 13 3 5 4 20 1 34
-4 20 -10 24 -41 24 -44 0 -56 8 -64 41 -5 21 0 31 29 57 38 34 38 31 -11 100
-34 47 -45 50 -86 21 l-29 -20 -29 21 c-29 20 -30 21 -16 60 16 45 12 52 -55
75 -66 23 -78 20 -91 -25 -11 -37 -15 -40 -49 -40 -34 0 -38 3 -49 39 -6 21
-17 41 -24 44 -6 2 -39 -5 -72 -17z"/>
<path d="M214 1742 c-19 -3 -20 -7 -12 -55 4 -29 12 -81 18 -117 19 -129 21
-145 25 -160 2 -8 7 -35 10 -60 3 -25 8 -58 11 -75 3 -16 7 -41 9 -55 2 -14
14 -86 25 -160 12 -74 23 -146 25 -160 3 -14 7 -47 10 -75 4 -27 9 -52 11 -55
3 -2 53 12 112 32 59 20 110 33 114 30 3 -4 9 -42 13 -85 3 -43 8 -86 10 -96
2 -10 6 -54 10 -97 3 -43 8 -90 10 -104 3 -14 7 -52 10 -85 7 -73 15 -151 20
-185 2 -14 7 -56 10 -95 7 -71 14 -98 16 -54 0 13 2 33 4 44 1 11 6 47 10 80
4 33 9 69 11 80 2 11 7 45 10 75 3 30 7 62 9 70 2 8 7 43 10 78 4 35 8 71 10
80 1 9 6 46 10 82 4 36 9 72 10 81 2 9 6 40 10 70 3 30 8 65 10 79 4 22 25
191 25 196 0 2 -69 -16 -152 -38 -84 -22 -157 -40 -163 -41 -5 -1 -11 9 -11
23 -1 14 -5 88 -8 165 -4 77 -8 183 -11 235 -3 52 -7 151 -10 219 -3 69 -8
127 -10 129 -5 5 -190 8 -221 4z"/>
<path d="M1828 1740 c-20 -5 -22 -12 -24 -75 -1 -39 -5 -126 -8 -195 -3 -69
-9 -183 -12 -255 -10 -218 -12 -246 -15 -249 -4 -3 -239 59 -298 78 -24 8 -24
8 -17 -55 3 -35 8 -75 10 -89 3 -14 7 -47 11 -75 3 -27 8 -63 10 -80 3 -16 9
-68 15 -115 14 -111 20 -159 25 -190 2 -14 7 -50 10 -80 16 -133 14 -114 34
-264 12 -81 21 -96 22 -35 0 24 2 53 4 64 2 11 7 47 10 80 3 33 8 76 10 95 2
19 7 64 10 100 3 36 8 76 10 90 2 14 7 59 11 100 3 41 7 82 9 90 1 8 6 47 10
85 4 39 8 71 9 73 2 1 53 -15 114 -36 l111 -38 5 25 c3 14 8 44 11 66 5 39 22
145 30 195 2 14 7 41 10 60 3 19 7 46 10 60 2 14 7 45 10 70 3 25 8 56 10 70
3 14 7 41 10 60 3 19 7 46 10 60 3 14 7 45 10 70 3 25 7 52 10 60 2 8 6 31 9
50 2 19 8 56 11 83 4 26 3 47 -1 48 -47 4 -198 3 -216 -1z"/>
<path d="M1224 1715 c-17 -7 -39 -25 -49 -41 -18 -26 -20 -47 -20 -234 0 -221
6 -255 52 -285 29 -19 97 -22 117 -6 11 9 15 9 18 0 2 -7 14 -14 26 -16 25 -3
24 -10 23 176 0 63 -2 116 -4 118 -2 1 -29 6 -60 9 l-57 6 0 -41 c0 -27 4 -41
13 -41 9 0 13 -19 15 -61 2 -67 -11 -97 -34 -78 -21 17 -20 414 1 423 26 9 43
-20 39 -65 -5 -52 6 -66 54 -65 l37 1 3 55 c5 109 -84 183 -174 145z"/>
<path d="M954 1712 c-18 -2 -22 -12 -27 -55 -4 -29 -8 -63 -11 -77 -3 -14 -12
-74 -21 -134 -9 -59 -20 -129 -25 -155 -10 -52 -22 -137 -20 -148 1 -8 54 -7
76 1 6 3 15 29 18 59 7 51 9 55 37 59 32 5 37 -6 48 -104 1 -5 20 -8 42 -8
l42 0 -7 73 c-4 39 -9 83 -11 97 -1 14 -6 50 -9 80 -4 30 -9 66 -11 80 -4 25
-10 71 -23 180 -7 55 -7 55 -42 55 -19 1 -45 -1 -56 -3z m42 -284 c4 -45 2
-68 -6 -73 -19 -12 -22 0 -14 74 3 40 8 70 10 68 2 -2 6 -33 10 -69z"/>
<path d="M1458 1685 c-2 -2 -2 -66 -1 -142 1 -76 2 -201 2 -278 l1 -140 105
-25 c64 -16 106 -21 108 -15 2 5 1 24 -2 40 -5 27 -12 32 -64 45 l-57 14 0 89
c0 77 2 88 16 83 9 -3 27 -9 40 -12 22 -6 24 -3 24 34 0 43 -13 60 -51 65 -23
4 -24 8 -27 77 -3 72 -3 72 20 66 13 -4 38 -9 56 -13 31 -5 32 -5 32 31 0 29
-5 38 -24 46 -28 10 -174 39 -178 35z"/>
<path d="M607 1651 c-21 -8 -37 -21 -38 -30 0 -9 0 -65 0 -126 0 -60 1 -180 1
-266 l0 -157 43 13 42 12 0 116 c1 108 6 139 21 124 4 -3 16 -55 28 -114 23
-117 17 -110 86 -100 27 4 34 31 18 76 -5 13 -17 60 -27 105 l-18 81 24 44
c38 72 26 195 -22 227 -28 18 -104 16 -158 -5z m106 -98 c12 -72 -9 -131 -45
-133 -9 0 -13 73 -9 158 1 6 12 12 25 12 19 0 24 -6 29 -37z"/>
<path d="M932 1041 c-11 -7 -13 -55 -10 -242 l3 -234 43 -2 c28 -2 42 1 43 10
3 33 -3 172 -7 178 -6 11 28 28 51 26 17 -2 20 5 21 36 1 20 -2 37 -5 38 -3 1
-19 2 -35 3 -29 1 -30 2 -32 59 -2 61 -5 58 61 61 27 1 30 4 30 36 l0 35 -75
2 c-41 2 -81 -1 -88 -6z"/>
<path d="M1165 1037 c-3 -7 -3 -115 -2 -242 l3 -230 92 -1 92 -1 0 33 c0 33 0
33 -52 36 l-53 3 -2 73 -2 72 35 0 c35 0 35 1 32 38 -3 34 -6 37 -35 40 l-33
3 0 60 0 59 38 -2 c50 -2 59 5 58 39 l-1 28 -83 2 c-57 1 -84 -2 -87 -10z"/>
<path d="M217 650 c-33 -10 -61 -20 -63 -23 -2 -2 11 -21 30 -42 55 -59 112
-196 135 -320 11 -56 8 -177 -4 -214 -8 -23 -7 -24 27 -17 89 17 143 41 157
71 18 36 21 96 8 150 -5 22 -11 49 -13 61 -11 60 -65 229 -85 270 -26 51 -69
84 -109 83 -14 0 -51 -9 -83 -19z"/>
<path d="M1877 641 c-39 -35 -59 -81 -109 -251 -24 -80 -32 -126 -32 -192 -1
-81 1 -89 24 -111 14 -13 53 -31 87 -40 93 -25 93 -25 79 26 -38 130 33 402
134 510 l41 46 -53 16 c-106 32 -131 31 -171 -4z"/>
<path d="M116 578 c-13 -40 -13 -64 0 -130 41 -221 111 -398 156 -398 27 0 41
62 35 154 -5 80 -11 118 -21 134 -3 5 -7 20 -9 33 -8 40 -62 152 -92 187 -28
32 -62 42 -69 20z"/>
<path d="M2063 558 c-44 -47 -81 -127 -108 -232 -40 -158 -22 -303 33 -270 27
16 68 109 101 229 17 61 33 124 36 140 2 17 7 41 10 55 3 14 2 44 -1 68 -8 52
-28 55 -71 10z"/>
<path d="M493 489 c-18 -5 -30 -15 -28 -22 2 -6 13 -44 25 -84 l20 -72 44 15
c50 17 50 18 20 122 -16 56 -21 58 -81 41z"/>
<path d="M1685 491 c-11 -18 -35 -105 -35 -128 0 -26 4 -29 51 -38 l35 -7 22
79 c12 42 18 81 14 84 -13 12 -80 20 -87 10z"/>
<path d="M945 465 c-14 -13 -26 -36 -26 -50 -1 -14 -2 -31 -3 -37 -3 -23 25
-82 69 -143 46 -65 60 -99 56 -130 -7 -48 -48 -35 -53 17 -3 33 -18 41 -55 27
-24 -9 -25 -27 -8 -91 14 -52 112 -76 154 -37 66 62 52 150 -43 275 -40 52
-53 98 -36 120 16 19 38 2 42 -33 3 -28 20 -35 55 -22 18 7 21 14 17 46 -7 57
-37 83 -96 83 -39 0 -54 -5 -73 -25z"/>
<path d="M1179 480 c-14 -8 -17 -28 -10 -61 0 -4 15 -5 31 -4 17 1 32 -1 35
-4 2 -4 5 -96 6 -204 1 -108 4 -198 8 -198 37 -7 62 -6 67 3 7 11 7 26 4 253
l-2 140 36 3 c40 4 52 19 42 55 -5 23 -9 24 -103 25 -54 0 -105 -3 -114 -8z"/>
</g>
</svg>
